<svg id="Layer_1" data-name="Layer 1" xmlns="http://www.w3.org/2000/svg" viewBox="0 0 4155.92 4300"><g id="Employee_Card" data-name="Employee Card"><g id="Employee_Card-2" data-name="Employee Card"><path d="M858.68,4006.29c-84.74,0-178.89-2.86-248.27-35.69C439,3889.62,346.48,3612,500,3355.37,738.14,2957,1333,2933.83,1467.44,2840.16c9.06-6.33,18.71,7.39,9.6,13.75-142.82,99.61-727.43,116.68-962.68,510-145.88,243.92-61.9,513.45,103.22,591.52,50.81,24,109,29.7,164.29,32.25,286.74,13.69,573.73-48.16,829.81-177.81,9.91-5.08,17.46,10,7.56,14.93A1686.91,1686.91,0,0,1,858.68,4006.29Z" transform="translate(-422.04 -350)"/><path d="M3299.63,3530.07l-69-23.28c-33.3-11.23-78.89-26.58-103.79-62.69-28.83-41.78-19.66-103.86,20-135.52,8.67-6.9,19.12,6.19,10.44,13.1-32.47,25.93-40.27,78.67-16.66,112.92,20.09,29.14,55.07,42.73,95.34,56.28l69,23.28C3315.47,3517.76,3310.2,3533.53,3299.63,3530.07Z" transform="translate(-422.04 -350)"/><path d="M3468.91,4206.23c-18.69-134.72-9.38-284.22,28.46-457,14.79-67.49,49.4-201.8,74.76-266.31,34.71-88.24,37.42-124.34-76-198-33.54-21.81-68.21-44.3-104.29-62.41-54.13-27.22-160.76-66-218-47.18-24.27,8-48.82,30.55-48.82,58.31,0,22.43,15.81,43.22,29.58,58.81a464.73,464.73,0,0,0,177.73,124.18,8.33,8.33,0,0,1,5.13,9.56c-6.82,31.66-19.71,73.68-26.52,105.1-2.32,10.83-18.73,7.3-16.37-3.54,6.28-29.15,18-68.3,25-98.19a481.41,481.41,0,0,1-177.49-126c-15.73-17.82-33.77-41.85-33.78-69.91,0-32,24.81-62.6,60.35-74.22,62.8-20.56,172.08,18.63,230.73,48.1,36.9,18.53,72,41.28,105.86,63.32,28.11,18.23,59.94,38.93,82,68.1,50,66,4.37,128.9-14.42,191.37-65.5,217.93-118.61,447.59-87.29,673.57C3487.05,4215,3470.43,4217.33,3468.91,4206.23Z" transform="translate(-422.04 -350)"/><path d="M2930.19,1773.39c-11.4-79.46-86.16-134.11-166-121.7-431.82,35.2-858.94,105.94-1281.71,214.9-77.11,13.74-130.76,85.16-119.36,162.6,103.21,995.61,207.48,1572.56,306.77,2145.36a144.66,144.66,0,0,0,161.6,122.71l1162.7-151.2c-20-139.1,7-131.43-21.13-159.59-71.38-72.81-76.36-212.33-17.43-302.07-36.21-25.82-71.75-53-98.9-87.84-69.59-91.33-40.59-182.36,13.07-199.49,50-16.41,96.94,30.15,125.06,52.64,50.66,40.33,135.6,82.94,187.41,105.95ZM1851.31,3924.78c-10.8-3.32-5.82-19.19,5-16.09,32.85,10.06,68.73-11.4,89.85-36.88,22.69-28.62,35.84-64,53.64-97.57,36.17-60.25,100,71.74,144.5,73.77,16.76,0,27.83-14.09,40.57-30.51,30.45-40.27,46.19-46,95.55-40.24l9.05.68c14.42,1.34,40.23,1.34,51-14.76,6.64-9.12,20.11.35,14.08,9.39-11.73,17.44-34.53,25.15-66.72,22.13-20.2-2.11-42.4-5.95-59,2.34-31.74,15.88-41.24,67.73-84.83,67.73-25.52-1.16-51-27.63-70.4-48.28-7.34-7.7-43.19-45.72-53.64-41.24-8.15,4.08-30.86,70.29-61,106.95C1933.24,3914.44,1891.17,3936.92,1851.31,3924.78Zm580-436.18c-35.88-5.36-71.41,13.08-98.24,29.84-5.69,3.69-11.4,7.38-17.09,11.4-25.49,16.43-52,33.53-82.48,41.24-38.22,9.05-86.83-1-105.94-39.23-9.51-19-12.54-44.15-28.17-47.27-6.7-1.34-13.74,2-18.44,5.36-28.67,18-39.12,54.8-59.67,89.85-22.09,36.14-70.39,64.8-105.28,37.89-15.8-12.65-23.23-30.44-54.31-120.36a601.44,601.44,0,0,1-115.33,257.48c-6.14,8.6-20.52-1-13.07-10.05a586.9,586.9,0,0,0,117-283.64c1.53-8.42,13.21-10.53,16.43-1.68,12.4,37.89,25.82,75.77,40.23,112.65,5.37,13.41,10.4,25.15,19.45,32.52,25.2,19.73,63.89-5.91,80.46-33.52,18.19-28.89,29.8-72.43,64.71-95.22,11.06-7,21.45-9.72,30.84-7.71,27.8,5,31.6,40.16,40.23,56.32,14.76,29.84,56,37.89,86.84,30.18,27.82-6.71,53-23.14,77.44-38.89,5.7-4,11.4-7.71,17.44-11.4,29.16-18.44,68.05-38.56,109.29-32.19a8.1,8.1,0,0,1,7,9.39A8.26,8.26,0,0,1,2431.32,3488.6Zm249.43-390.92c-376.33,380.72-1030.53,104.64-1018.53-433.49,7.71-329.23,281-589.4,609.85-581.69s589.39,280.62,581.68,609.51A593.08,593.08,0,0,1,2680.75,3097.68Z" transform="translate(-422.04 -350)" style="fill:#2c56fe"/><path d="M2994.23,4146.06l-1162.7,151.2a144.66,144.66,0,0,1-161.6-122.71c-4.36-25.14-9-48.94-13.41-74.09,89.85-31.85,218.26-31.85,279.61-39.56,206.52-27.49,412.38-55.65,619.23-83.15q190.09-25.65,378.85-51.63a181.51,181.51,0,0,0,38.89,60.35c4.36,4.36,8.72,8.38,11.4,14.08C2990.53,4016,2980.32,4049.46,2994.23,4146.06Z" transform="translate(-422.04 -350)"/><path d="M2292.36,1921.82c-325,43.65-305.2,43.23-315,37.25-36.65-22.31-26.35-82.34-2.35-97,12.19-7.43,34.53-6.65,48.83-8.57,307.18-41.25,283.45-40.22,293.7-35.54,23.37,10.68,37,37.44,30.91,68.32C2342.46,1916.49,2322,1917.84,2292.36,1921.82Z" transform="translate(-422.04 -350)"/><path d="M2009,1841.45l-69.57-510.75a54.87,54.87,0,0,1,47.79-61.87l150.85-18.2a54.84,54.84,0,0,1,60.81,46.26l75.64,499.94a54.87,54.87,0,0,1-44.27,62.16l-156.92,29A54.86,54.86,0,0,1,2009,1841.45Z" transform="translate(-422.04 -350)" style="fill:#f6d356"/><circle cx="1661.17" cy="1049.7" r="57.83"/><path d="M1970.45,1546.64l-2.06-8-.6.1-6.62-5.17c2.88-3.7,3.95-5.08,268.57-34.94A8.5,8.5,0,0,1,2239,1506a8.38,8.38,0,0,1-7.4,9.27C2131.83,1526.54,1980,1544.19,1970.45,1546.64Z" transform="translate(-422.04 -350)"/><path d="M3066.09,2745c196.84-201.61,388.43-413.15,569.47-628.75,109.06-129.85,222.51-270.08,306-430.38,89.79-172.57,130.32-347.54,117.18-505.94C4024.14,763.44,3580.77,445.19,3014,614.09c-119.19,35.59-240.46,91-370.77,169.56-101.62,61.27-164.27,126.72-248,211.57-109.2,110.54-218.77,233.18-280.44,381-4.34,10.26-19.7,3.73-15.48-6.49,62.78-150.44,173.59-274.56,284-386.3,85.12-86.28,148.09-151.94,251.26-214.13C2766.09,690.05,2888.63,634,3009.2,598.05c575-171.53,1030.63,152,1066.19,580.49,13.4,161.54-27.75,339.65-119,515-84.22,161.84-198.32,302.85-308,433.46-181.3,215.89-373.2,427.72-570.33,629.66C3070.31,2764.63,3058.33,2752.9,3066.09,2745Z" transform="translate(-422.04 -350)"/><path d="M3003,2286.81c439.23-205.32,776.39-625.94,859-1071.6,61.88-334,9.6-573.46-155.43-711.75C3499.12,329.71,3143.92,297,2796.68,547.79c-123.24,89-215,225.08-304.39,351.08-6.46,9.08-20.07-.76-13.65-9.76,91.53-129.05,183.45-264.77,308.22-354.94,350.89-253.29,716-223.21,930.41-43.55,170,142.46,224.21,387.29,161.13,727.66-83.5,450.81-424.35,876.18-868.33,1083.72C3000,2306.62,2992.94,2291.51,3003,2286.81Z" transform="translate(-422.04 -350)"/><path d="M3048.51,4358c-15.52-13.46-23.05-44.4-29.11-69.25-12.23-49.83-44.54-129.51-41.27-269.26.31-5.7.33-11.36-1.44-15.88-1.59-3.34-4.71-6.42-8.32-10-76.06-77.33-78.43-217-24-306.94-32.06-23.08-67.4-50.45-94.23-84.93-73.07-95.93-42.36-193.61,17.14-212.62,45.37-14.85,86.1,15.53,120.45,43.94,53.66,44.29,97.47,66.14,165.13,99.47,17.89,8.72,14.91,7.74,27.8,13.29l5,2.19c36.77,15.26,55.33,10,100-16,9.43-5.66,18.11,8.85,8.45,14.48-52.81,30.74-79.2,37.1-135.53,7.56-58.71-28.94-118.11-57.28-169-97.76-18.34-14.73-36-30.94-55.79-41.81-57.59-31.38-103.7,2-109,59.81-4,37.69,9.66,79.27,38.53,117.21,27.21,34.94,64.41,62.77,97.11,86.11a8.38,8.38,0,0,1,2.15,11.43c-56.31,85.73-52.49,221.33,16.42,291.59,31.07,31,3.35,24.77,23.42,164.26,11.13,75.25,24.24,103.16,33.15,139.9,5.21,21.35,12.33,50.58,23.72,60.47,23.34,19.59,75.63-5.49,101.86-15.26,42.38-15.94,86.57-27.24,129.28-38.17,11-2.54,14.71,13.54,4.15,16.24-47.59,12.16-93.38,23.9-138.31,41.87C3135.66,4358.25,3076.41,4381.47,3048.51,4358Z" transform="translate(-422.04 -350)"/><path d="M3458,4547.35c66.49-29.68,132.07-65.15,182-118.12,31.15-33,31.77-51,23.65-89.53-10.45-49.53-10.85-144.61-53-176.71-45.2-34.38-132.41-34.38-185.84-31.31-70.37,4-139.18,21.63-207.33,39.61-102.84,27.12-253.55,105.36-276.86,134.4-37.21,46.36-14.74,164.74-1.58,228.22,32.42,156.34,97.19,110.26,171.92,108.18C3175.37,4640.29,3312.93,4612.1,3458,4547.35Z" transform="translate(-422.04 -350)" style="fill:#b0d8ff"/><path d="M2512.66,2476c-6.77,0-3.39-7.37-15-70-.88-5.38,7.31-7,8.29-1.38,8.24,60.21,15.27,70.11,7.43,71.34A4,4,0,0,1,2512.66,2476Z" transform="translate(-422.04 -350)"/><path d="M1977.26,2717.61c-69.18,0-115.4-64.52-108-123.33,5.91-47.34,45.9-88.53,93-95.83,25.72-3.87,59.5,3.89,72.78,30.44,2.42,4.85-4.94,8.84-7.5,3.74-11.41-22.82-41.22-29.44-64-25.87-43.57,6.71-80.53,44.79-86,88.57-5.5,43.61,21.09,89.41,61.83,106.57,39.82,16.4,90.47,3.76,117.85-29.34,3.55-4.18,10,1.05,6.45,5.37C2042.65,2703.44,2010,2717.61,1977.26,2717.61Z" transform="translate(-422.04 -350)"/><path d="M2500.17,2661.17c-4-3.88,1.89-9.89,5.79-6,31,29.8,76.34,34.45,115.36,11.79,37.87-22.17,58.23-71,47.33-113.68-11-42.85-52.47-75.66-96.59-76.31-22.13-.1-50.3,9.16-59.4,31.92-2,5.09-9.85,2.06-7.8-3.15,25-62.3,148.65-45.52,171.91,45.45,11.79,46.16-10.23,99-51.24,123C2583.31,2698.67,2534,2693.7,2500.17,2661.17Z" transform="translate(-422.04 -350)"/><path d="M2230.61,2785.91c-217.21,0-258.12-312.8-128.11-396.82,5-2.82,9,4.14,4.55,7.07-81.17,52.42-87.94,192.68-39.8,283.08,36.61,68.76,115.09,108.34,190.8,96.13a4.18,4.18,0,1,1,1.34,8.25A181.27,181.27,0,0,1,2230.61,2785.91Z" transform="translate(-422.04 -350)"/><path d="M2371.15,2778.08a4.2,4.2,0,0,1-1-8.28c99.25-23.25,168-134.1,132.31-271.16-1.38-5.34,6.72-7.51,8.12-2.09,37,142.42-35.37,257.26-138.53,281.44A5.09,5.09,0,0,1,2371.15,2778.08Z" transform="translate(-422.04 -350)"/><path d="M2270.38,2945.78a4.18,4.18,0,0,1-4.18-3.89c-3.7-50.8-7.21-101.73-11.62-163a4.19,4.19,0,0,1,3.88-4.48,4.14,4.14,0,0,1,4.47,3.89c1.9,26.16,3.6,50.39,5.3,74.49,2,28.75,4.06,57.23,6.32,88.5a4.18,4.18,0,0,1-3.86,4.48Z" transform="translate(-422.04 -350)"/><path d="M2400.81,2926.53a4.2,4.2,0,0,1-4.19-4c-1.5-30.36-15.57-121.59-17.09-152.41-.27-5.48,8.11-5.93,8.38-.39,1.51,30.47,15.58,121.79,17.1,152.4a4.21,4.21,0,0,1-4,4.39Z" transform="translate(-422.04 -350)"/><path d="M1986.22,2602.79c-18.24-16.93-48.08-20.1-69.43-7.37-4.9,2.79-9-4.41-4.29-7.2,38.38-22.84,88.27,5,79.65,14.34A4.21,4.21,0,0,1,1986.22,2602.79Z" transform="translate(-422.04 -350)"/><path d="M1950.56,2630.59a51.51,51.51,0,0,1,5.11-41.68c2.88-4.73,10-.38,7.14,4.39a43,43,0,0,0-4.26,34.8,4.18,4.18,0,0,1-8,2.49Z" transform="translate(-422.04 -350)"/><path d="M2555.43,2569.66c28.39-34.41,85-24.94,79.84-13.23a4.28,4.28,0,0,1-5.5,2.23c-22.84-9.89-52.06-2.79-67.89,16.37C2558.35,2579.26,2551.9,2574,2555.43,2569.66Z" transform="translate(-422.04 -350)"/><path d="M2596.73,2601.38a6.35,6.35,0,0,1-.72-.06,4.18,4.18,0,0,1-3.4-4.85,43.17,43.17,0,0,0-8.76-34c-3.48-4.36,3.1-9.55,6.55-5.24a51.6,51.6,0,0,1,10.46,40.66A4.21,4.21,0,0,1,2596.73,2601.38Z" transform="translate(-422.04 -350)"/><path d="M2277.87,2577.09c-3.54-9,19.89-7,37-19.74,18-13.27,9.89-14.28-20.76-176.25-1-5.49,7.16-6.94,8.25-1.57,30.38,160.68,40.78,167.35,17.5,184.56-12.29,9.18-23.33,10.13-36.55,15.36A4.2,4.2,0,0,1,2277.87,2577.09Z" transform="translate(-422.04 -350)"/><path d="M2256.38,2498.41c1.31,24.51-9.48,45-24.06,45.8s-27.51-18.47-28.82-43,9.48-45,24.09-45.79,27.48,18.47,28.79,43" transform="translate(-422.04 -350)"/><path d="M2196.68,2652c-10.89-10.94-19.06-30.71-11.27-48.26,2.15-5,9.93-1.76,7.66,3.41-6.18,13.94.61,29.95,9.57,39,7.55,7.62,27.28,16.12,30.92,3,1.51-5.54,9.5-3,8.09,2.22-2.3,8.29-7.73,11.33-11.89,12.41C2219.24,2666.46,2204.06,2659.47,2196.68,2652Z" transform="translate(-422.04 -350)"/><path d="M2400.1,2977.77c19.66-3.85,35.78-21.48,37.93-41.37s-9.87-40.55-28.23-48.51c10.78-8.69,8.22-27.14-1.87-36.65s-24.8-12-38.63-12.84a214.19,214.19,0,0,0-111.37,24c-11.76,6.2-28.06,11.78-30.5,26.75-2.1,12.67,5.52,21.32,17.48,24.8,3,.89,6.68,1.57,8,4.42,1.16,2.51-.2,5.59-2.26,7.45s-4.75,2.89-7.16,4.3a24.24,24.24,0,0,0,4.65,43.89c41.67,13.94,82.4,17.87,125.42,8.91" transform="translate(-422.04 -350)" style="fill:#f6d356"/><path d="M2680.64,3097.83c-183,185.4-463.75,226.4-688.1,113.73-.88-39.27,9.31-79,29.85-116.37,11.43-20.59,27.38-39.16,42.4-57.4,72.9-90.08,250.45-74.94,354.8-80.88,59.1-3.14,121.65,2.58,169.65,37.13C2621,3016.78,2660.11,3057.43,2680.64,3097.83Z" transform="translate(-422.04 -350)" style="fill:#f6d356"/><path d="M2242.53,2926.24c-14.46-6.52-17.75-24.2-19-38.9a4.2,4.2,0,0,1,3.81-4.55c2.59.16,4.36,1.54,4.54,3.83,1.06,12.41,3.62,27.27,14.06,32,5.94,2.66,13.18,1.45,21.32-.26,97-18.78,104.41-26,106-18.2s-6.23,3.84-104.3,26.39C2264.71,2927.41,2250.85,2929.94,2242.53,2926.24Z" transform="translate(-422.04 -350)"/><path d="M2290.59,2978.59c-5.65-.72-4.32-9.21,1-8.32,30.61,3.81,108.28,4.7,130.4-14.14,11.32-9.63,14.57-27.37,7.44-40.37-2.68-4.88,4.68-8.88,7.33-4.06,9,16.37,4.89,38.7-9.33,50.81-9.63,8.19-22.28,11.3-34.54,13.46A345.3,345.3,0,0,1,2290.59,2978.59Z" transform="translate(-422.04 -350)"/><path d="M2059.69,2363a4.2,4.2,0,0,1-4.19-4c-.92-16.21-1.13-32.68-.64-48.92a4.2,4.2,0,0,1,4.19-4.06h.13a4.19,4.19,0,0,1,4.06,4.33c-1.42,46.28,3.75,52.21-3.32,52.61Z" transform="translate(-422.04 -350)"/><path d="M2510.25,2376.06a2.17,2.17,0,0,1-.43,0,4.19,4.19,0,0,1-3.74-4.59,102.9,102.9,0,0,1,4.3-20.59c1.74-5.3,9.67-2.68,8,2.55a94.86,94.86,0,0,0-3.95,18.9A4.19,4.19,0,0,1,2510.25,2376.06Z" transform="translate(-422.04 -350)"/><path d="M2210.52,2448.52c-15.85,9.34-33.22,9.25-38.78-.19s2.79-24.68,18.64-34,33.22-9.25,38.78.2-2.79,24.67-18.64,34" transform="translate(-422.04 -350)"/><path d="M2346.54,2489c9.74,22.52,28.53,36.08,41.93,30.29s16.42-28.79,6.67-51.31-28.53-36.09-41.95-30.28-16.39,28.77-6.65,51.3" transform="translate(-422.04 -350)"/><path d="M2365.39,2423.88c18.35,1.3,33.86-6.52,34.63-17.44s-13.48-20.86-31.83-22.16-33.86,6.52-34.64,17.45,13.48,20.85,31.84,22.15" transform="translate(-422.04 -350)"/><path d="M2077.89,2495.87c65.63-106,47-132.76,72.05-117,12.11,7.62,25.11,12.35,39.62,11.73,49.38-2.08,52.09-49.14,75.57-39.85,13.06,5.16,10.74,26.59,57.86,26.94,9.35.08,18.64,2.88,27.68-.2,8-2.72,17-7.5,24.37-11.57,6.61-3.66,13.21-8.75,15.05-16.08-3.72,14.83,11.44,32.95,23.22,40.06,18,10.88,41,12.32,60,2.84-4.25,41.34-.82,87.6,37.52,112.16-7.18-4.61,24.24-22.53,25.11-23.47,7.42-8,9-28.32,7.81-38.62-5-41.43-44.05-69.63-68.55-96.52-40.77-44.74-44.57-59.61-117.06-60.44-99.58-1.15-93.8,9.92-146.27,17.06-46,6.26-128.22-7.2-160.23,46.7-6.16,10.36-9.3,22.19-12.37,33.84-20.27,76.92-23.56,84.47-20.76,98.11,1.78,8.71,6.8,16.69,7.23,25.57.31,6.32-1.69,13.13,1.27,18.73C2036.82,2544.54,2073.33,2503.25,2077.89,2495.87Z" transform="translate(-422.04 -350)"/><path d="M1988.71,3219.17c-376.16-189.15-450-690.2-147.79-978.23,116.8-111.38,270-169.89,431.34-166.81,333.73,7.79,597.7,284.26,589.87,618.08C2851.85,3133.71,2383.34,3416.53,1988.71,3219.17Zm269-1128.44c-151.67,0-295.09,57.33-405.23,162.32-294,280.23-221.82,767.39,143.75,951.12,383.12,191.68,839.19-82.76,849.15-512.36h0C2853.1,2362.55,2588.87,2090.73,2257.7,2090.73Z" transform="translate(-422.04 -350)"/><path d="M2512.66,2476c-6.77,0-3.39-7.37-15-70-.88-5.38,7.31-7,8.29-1.38,8.24,60.21,15.27,70.11,7.43,71.34A4,4,0,0,1,2512.66,2476Z" transform="translate(-422.04 -350)"/><path d="M2571.79,2472.75c-26.48-.67-55.32,11.73-64,36.54l-.34,5.7c-5.7-29.84-10.73-58.67-25.81-84.82-24.48-42.58-65.72-72.42-110.64-79.46-67.45-10.34-169.51-10.66-230.66,17.44-40.57,19.11-65.38,48.27-88.18,88.84-12.4,21.46-17.1,58-17.43,88.85l-3.35-15.09c-11.74-23.13-41.58-31.85-67.39-28.16-7.29-49.22-15.54-92.36,1.34-166,10.45-44.79,25-62.25,52-78.45,60.73-36.06,114.95-12.26,126.05,27.16-.33-20.45,12.74-39.23,27.5-53.65,36.88-36.87,88.17-58.33,140.14-62.35s104.93,9.39,150.86,34.53c37.22,20.45,69.4,72.08,83.82,111.64C2557.57,2348.16,2570.08,2437.56,2571.79,2472.75Z" transform="translate(-422.04 -350)"/><path d="M1977.26,2717.61c-69.18,0-115.4-64.52-108-123.33,5.91-47.34,45.9-88.53,93-95.83,25.72-3.87,59.5,3.89,72.78,30.44,2.42,4.85-4.94,8.84-7.5,3.74-11.41-22.82-41.22-29.44-64-25.87-43.57,6.71-80.53,44.79-86,88.57-5.5,43.61,21.09,89.41,61.83,106.57,39.82,16.4,90.47,3.76,117.85-29.34,3.55-4.18,10,1.05,6.45,5.37C2042.65,2703.44,2010,2717.61,1977.26,2717.61Z" transform="translate(-422.04 -350)"/><path d="M2500.17,2661.17c-4-3.88,1.89-9.89,5.79-6,31,29.8,76.34,34.45,115.36,11.79,37.87-22.17,58.23-71,47.33-113.68-11-42.85-52.47-75.66-96.59-76.31-22.13-.1-50.3,9.16-59.4,31.92-2,5.09-9.85,2.06-7.8-3.15,25-62.3,148.65-45.52,171.91,45.45,11.79,46.16-10.23,99-51.24,123C2583.31,2698.67,2534,2693.7,2500.17,2661.17Z" transform="translate(-422.04 -350)"/><path d="M2230.61,2785.91c-217.21,0-258.12-312.8-128.11-396.82,5-2.82,9,4.14,4.55,7.07-81.17,52.42-87.94,192.68-39.8,283.08,36.61,68.76,115.09,108.34,190.8,96.13a4.18,4.18,0,1,1,1.34,8.25A181.27,181.27,0,0,1,2230.61,2785.91Z" transform="translate(-422.04 -350)"/><path d="M2371.15,2778.08a4.2,4.2,0,0,1-1-8.28c99.25-23.25,168-134.1,132.31-271.16-1.38-5.34,6.72-7.51,8.12-2.09,37,142.42-35.37,257.26-138.53,281.44A5.09,5.09,0,0,1,2371.15,2778.08Z" transform="translate(-422.04 -350)"/><path d="M2270.38,2945.78a4.18,4.18,0,0,1-4.18-3.89c-3.7-50.8-7.21-101.73-11.62-163a4.19,4.19,0,0,1,3.88-4.48,4.14,4.14,0,0,1,4.47,3.89c1.9,26.16,3.6,50.39,5.3,74.49,2,28.75,4.06,57.23,6.32,88.5a4.18,4.18,0,0,1-3.86,4.48Z" transform="translate(-422.04 -350)"/><path d="M2400.81,2926.53a4.2,4.2,0,0,1-4.19-4c-1.5-30.36-15.57-121.59-17.09-152.41-.27-5.48,8.11-5.93,8.38-.39,1.51,30.47,15.58,121.79,17.1,152.4a4.21,4.21,0,0,1-4,4.39Z" transform="translate(-422.04 -350)"/><path d="M1986.22,2602.79c-18.24-16.93-48.08-20.1-69.43-7.37-4.9,2.79-9-4.41-4.29-7.2,38.38-22.84,88.27,5,79.65,14.34A4.21,4.21,0,0,1,1986.22,2602.79Z" transform="translate(-422.04 -350)"/><path d="M1950.56,2630.59a51.51,51.51,0,0,1,5.11-41.68c2.88-4.73,10-.38,7.14,4.39a43,43,0,0,0-4.26,34.8,4.18,4.18,0,0,1-8,2.49Z" transform="translate(-422.04 -350)"/><path d="M2555.43,2569.66c28.39-34.41,85-24.94,79.84-13.23a4.28,4.28,0,0,1-5.5,2.23c-22.84-9.89-52.06-2.79-67.89,16.37C2558.35,2579.26,2551.9,2574,2555.43,2569.66Z" transform="translate(-422.04 -350)"/><path d="M2596.73,2601.38a6.35,6.35,0,0,1-.72-.06,4.18,4.18,0,0,1-3.4-4.85,43.17,43.17,0,0,0-8.76-34c-3.48-4.36,3.1-9.55,6.55-5.24a51.6,51.6,0,0,1,10.46,40.66A4.21,4.21,0,0,1,2596.73,2601.38Z" transform="translate(-422.04 -350)"/><path d="M2277.87,2577.09c-3.54-9,19.89-7,37-19.74,18-13.27,9.89-14.28-20.76-176.25-1-5.49,7.16-6.94,8.25-1.57,30.38,160.68,40.78,167.35,17.5,184.56-12.29,9.18-23.33,10.13-36.55,15.36A4.2,4.2,0,0,1,2277.87,2577.09Z" transform="translate(-422.04 -350)"/><path d="M2256.38,2498.41c1.31,24.51-9.48,45-24.06,45.8s-27.51-18.47-28.82-43,9.48-45,24.09-45.79,27.48,18.47,28.79,43" transform="translate(-422.04 -350)"/><path d="M2196.68,2652c-10.89-10.94-19.06-30.71-11.27-48.26,2.15-5,9.93-1.76,7.66,3.41-6.18,13.94.61,29.95,9.57,39,7.55,7.62,27.28,16.12,30.92,3,1.51-5.54,9.5-3,8.09,2.22-2.3,8.29-7.73,11.33-11.89,12.41C2219.24,2666.46,2204.06,2659.47,2196.68,2652Z" transform="translate(-422.04 -350)"/><path d="M2400.1,2977.77c19.66-3.85,35.78-21.48,37.93-41.37s-9.87-40.55-28.23-48.51c10.78-8.69,8.22-27.14-1.87-36.65s-24.8-12-38.63-12.84a214.19,214.19,0,0,0-111.37,24c-11.76,6.2-28.06,11.78-30.5,26.75-2.1,12.67,5.52,21.32,17.48,24.8,3,.89,6.68,1.57,8,4.42,1.16,2.51-.2,5.59-2.26,7.45s-4.75,2.89-7.16,4.3a24.24,24.24,0,0,0,4.65,43.89c41.67,13.94,82.4,17.87,125.42,8.91" transform="translate(-422.04 -350)" style="fill:#5fff9f"/><path d="M2680.64,3097.83c-183,185.4-463.75,226.4-688.1,113.73-.88-39.27,9.31-79,29.85-116.37,11.43-20.59,27.38-39.16,42.4-57.4,72.9-90.08,250.45-74.94,354.8-80.88,59.1-3.14,121.65,2.58,169.65,37.13C2621,3016.78,2660.11,3057.43,2680.64,3097.83Z" transform="translate(-422.04 -350)" style="fill:#5fff9f"/><path d="M2242.53,2926.24c-14.46-6.52-17.75-24.2-19-38.9a4.2,4.2,0,0,1,3.81-4.55c2.59.16,4.36,1.54,4.54,3.83,1.06,12.41,3.62,27.27,14.06,32,5.94,2.66,13.18,1.45,21.32-.26,97-18.78,104.41-26,106-18.2s-6.23,3.84-104.3,26.39C2264.71,2927.41,2250.85,2929.94,2242.53,2926.24Z" transform="translate(-422.04 -350)"/><path d="M2290.59,2978.59c-5.65-.72-4.32-9.21,1-8.32,30.61,3.81,108.28,4.7,130.4-14.14,11.32-9.63,14.57-27.37,7.44-40.37-2.68-4.88,4.68-8.88,7.33-4.06,9,16.37,4.89,38.7-9.33,50.81-9.63,8.19-22.28,11.3-34.54,13.46A345.3,345.3,0,0,1,2290.59,2978.59Z" transform="translate(-422.04 -350)"/><path d="M2059.69,2363a4.2,4.2,0,0,1-4.19-4c-.92-16.21-1.13-32.68-.64-48.92a4.2,4.2,0,0,1,4.19-4.06h.13a4.19,4.19,0,0,1,4.06,4.33c-1.42,46.28,3.75,52.21-3.32,52.61Z" transform="translate(-422.04 -350)"/><path d="M2221.31,2305.8a4,4,0,0,1-.67-.07,4.17,4.17,0,0,1-3.47-4.78c1.7-10.64,3.85-21.21,6.37-31.39,1.37-5.48,9.45-3.31,8.14,2-2.46,9.95-4.55,20.3-6.22,30.67A4.21,4.21,0,0,1,2221.31,2305.8Z" transform="translate(-422.04 -350)"/><path d="M2395.43,2298.56a5.47,5.47,0,0,1-1-.09,4.21,4.21,0,0,1-3.11-5c3.23-13.65,7-27.3,11.23-40.56,1.71-5.33,9.66-2.73,8,2.55-4.16,13.07-7.89,26.49-11.07,39.91A4.19,4.19,0,0,1,2395.43,2298.56Z" transform="translate(-422.04 -350)"/><path d="M2510.25,2376.06a2.17,2.17,0,0,1-.43,0,4.19,4.19,0,0,1-3.74-4.59,102.9,102.9,0,0,1,4.3-20.59c1.74-5.3,9.67-2.68,8,2.55a94.86,94.86,0,0,0-3.95,18.9A4.19,4.19,0,0,1,2510.25,2376.06Z" transform="translate(-422.04 -350)"/><path d="M2210.52,2448.52c-15.85,9.34-33.22,9.25-38.78-.19s2.79-24.68,18.64-34,33.22-9.25,38.78.2-2.79,24.67-18.64,34" transform="translate(-422.04 -350)"/><path d="M2346.54,2489c9.74,22.52,28.53,36.08,41.93,30.29s16.42-28.79,6.67-51.31-28.53-36.09-41.95-30.28-16.39,28.77-6.65,51.3" transform="translate(-422.04 -350)"/><path d="M2365.39,2423.88c18.35,1.3,33.86-6.52,34.63-17.44s-13.48-20.86-31.83-22.16-33.86,6.52-34.64,17.45,13.48,20.85,31.84,22.15" transform="translate(-422.04 -350)"/><path d="M2077.89,2495.87c65.63-106,47-132.76,72.05-117,12.11,7.62,25.11,12.35,39.62,11.73,49.38-2.08,52.09-49.14,75.57-39.85,13.06,5.16,10.74,26.59,57.86,26.94,9.35.08,18.64,2.88,27.68-.2,8-2.72,17-7.5,24.37-11.57,6.61-3.66,13.21-8.75,15.05-16.08-3.72,14.83,11.44,32.95,23.22,40.06,18,10.88,41,12.32,60,2.84-4.25,41.34-.82,87.6,37.52,112.16-7.18-4.61,24.24-22.53,25.11-23.47,7.42-8,9-28.32,7.81-38.62-5-41.43-44.05-69.63-68.55-96.52-40.77-44.74-44.57-59.61-117.06-60.44-99.58-1.15-93.8,9.92-146.27,17.06-46,6.26-128.22-7.2-160.23,46.7-6.16,10.36-9.3,22.19-12.37,33.84-20.27,76.92-23.56,84.47-20.76,98.11,1.78,8.71,6.8,16.69,7.23,25.57.31,6.32-1.69,13.13,1.27,18.73C2036.82,2544.54,2073.33,2503.25,2077.89,2495.87Z" transform="translate(-422.04 -350)"/><path d="M1275.89,1798.06a1728.94,1728.94,0,0,1-229.12-209.87c-7.5-8.17,5-19.49,12.38-11.26A1714.44,1714.44,0,0,0,1286,1784.7C1295,1791.55,1284.55,1804.64,1275.89,1798.06Z" transform="translate(-422.04 -350)"/><path d="M1393,1752l-73.31-238.91c-3.29-10.71,12.85-15.32,16-4.91L1409,1747.11C1412.26,1757.73,1396.21,1762.58,1393,1752Z" transform="translate(-422.04 -350)"/><path d="M1177.54,1931.34l-191.4-36.4c-11.2-2.1-7.38-19,3.14-16.44l191.39,36.34C1191.53,1917,1188.51,1933.34,1177.54,1931.34Z" transform="translate(-422.04 -350)"/><path d="M4010.35,3984c255.73-109.13,458.81-343.88,530-612.68,24.93-94.1,40-227.06-29.63-326.13-28.45-40.43-76.06-69.87-127.28-80.21-45,45.41-127.06,94.14-167.42,48.29a8.37,8.37,0,0,1-.36-10.64c38.47-50.05,100.25-65.75,162-55.69,76.28-81.69,107.65-211.9,70.31-327.05-43.53-134.21-167.26-242.68-322.91-283-10.51-2.78-6.86-18.81,4.22-16.24,161.14,41.81,289.35,154.5,334.63,294.11,38.06,117.34,8,249.71-67.31,336.08,51.55,12.87,98.79,43.51,127.82,84.76,73.37,104.32,58,242.51,32.11,340.08-72.47,273.65-279.23,512.66-539.61,623.75C4006.66,4003.7,4000.2,3988.25,4010.35,3984Zm223.42-977.05c34.3,25.14,97.5-16.27,128.85-45.08C4313.39,2957,4265.28,2970.65,4233.77,3006.91Z" transform="translate(-422.04 -350)"/></g></g></svg>