<svg id="Layer_1" data-name="Layer 1" xmlns="http://www.w3.org/2000/svg" viewBox="0 0 3365.32 4586.44"><path d="M1524.1,3015.12c-.74,1.6-.11,1.47-1.65,47.83-4.32,129.84-3.4,139.77-1.65,150.09,11,64.64,48.19,109.51,62.68,125.35,40.25,44,85,60.88,120.4,74.22,27.38,10.32,97.74,36.84,179.78,24.74,127.45-18.79,198-126,232.56-100.61,3.23,2.37,9.66,21.56,22.54,59.93,0,0,8.31,24.79,19.1,62.74,2.71,9.53,4.94,18,7.13,27.13.84,3.55,1.48,6.35,1.79,7.77,3.31,14.75,5.32,26.5,6.06,31,3.93,23.67,1.75,20.93,4.4,30.79,1,3.84,3.5,12.19,6.18,24.65.4,1.85.69,3.28.89,4.23,4.3,21,15.66,71.47,31.85,142.3a903.26,903.26,0,0,1,12.07,99c3.4,51.22-1,51.18,1,104.48,3.33,88.7,17.47,141.7,8.46,198.28-.62,3.91-2,11.65-2.72,22.51-2.43,34.49,4.52,49.71,7.41,79.12,5,50.73-9.47,68.92,3.94,80.79,13.21,11.7,38,3.58,46.57.86,67.8-21.47,140.78-20.92,210.33-35.73,38.42-8.18,78.51-15.39,158.71-29.83,77.05-13.87,115.57-20.8,121.17-21,14.29-.49,24.4-.09,36.33-6,36.76-18.15,39.69-74,47.24-97.94,30.57-96.95,18.21-163.24,11.54-329.87-9.05-226.06-9.7-255-23.09-315-18.91-84.76-43.79-144.74-67.62-201.22-110.43-261.7-270.61-446.76-214.42-520.1,10.94-14.27,31.19-25.78,29.69-45.63-2-26.94-43.43-60-82.59-60.65-15.62-.26-30.73,4.63-43.27-5.44-11.12-8.92-11.91-22.91-14.84-22.46-5.3.81,6.46,45.17-11.87,87.32-10.42,23.95-29,43.66-36,40.66-11.52-4.93,14.56-68.52-2.51-78.66-8-4.78-19,6.3-63.16,36-63.57,42.83-67.53,37.86-89.43,59.19-13.24,12.9-21.4,24.07-40,32.83-10.29,4.84-17.36,5.92-25.15,14-10.38,10.72-6.47,17.73-15.88,28.82-10.44,12.33-17.9,6.78-34.74,20-15.75,12.41-13.69,20.78-27.17,27.52-12.11,6.05-18.68,1.75-32.58,3.89-25.3,3.89-34.37,22.87-54.8,37.75-17,12.34-35.29,17.19-79.44,21C1787.9,2965.59,1558.24,2941.57,1524.1,3015.12Z" transform="translate(-1138.11 -238.48)" style="fill:#f6d356"/><path d="M1765.34,3671.7c-6,6.12-7.83,10.91-16.1,27.07-20.19,39.46-26.88,45.69-39.59,70.1-11.6,22.28-26.84,57.07-38.76,107.21a515.74,515.74,0,0,0-18.22,65.81c-3.64,17.65-5.65,32.37-9.67,61.81-3.68,26.93-6,47.27-6.43,51.25-13.58,120.88-14.87,149.83-23.18,210.22-11.24,81.65-16.5,84-18.56,132.07-3,68.84-5.07,105.45,18.15,130.75,6.39,7,17.52,13.85,39.77,27.62,0,0,35.77,22.13,70.7,38C1838,4645.79,2037,4671.57,2037,4671.57c66.91,8.67,101.37,13,150.15,11,68.27-2.7,123.52-15.56,169.52-26.41A1163.12,1163.12,0,0,0,2475,4621.63c21.44-2,39.92-4.5,54.71-6.76,54.81-8.4,46.45-12.07,85.48-17.2,23.55-3.1,33.58-2.69,38.76-10.72,7.45-11.56-2.35-29.38-10-44.78-12.1-24.31-24.19-60.52-48.39-133-18.66-55.85-28-83.77-28.19-84.51-7-26.36-9.38-41.39-22.27-48.66-13.09-7.38-25,.06-58.55,8.25-11.27,2.75-36.65,6-87.41,12.37-54.37,6.87-39.69,3-79.17,8.25-47.72,6.29-62.86,10.76-72.71,1.2-9-8.69-5.25-23.25-2.34-48.21,3.73-31.95-.25-64.37,1.65-96.49,4.49-75.78-6.46-207.24-12.51-280-14.49-174-35-278.35-38.27-293.28-2.05-9.41-5.1-19.16-8.07-37.94-3.74-23.63-2.15-28.51-6.44-31.9-11.73-9.28-40.28,14-79.85,34.48-27.57,14.25-25.62,9.09-90,33.57-130.63,49.69-120,63.85-164,66.21C1818.9,3654.12,1786.83,3649.68,1765.34,3671.7Z" transform="translate(-1138.11 -238.48)" style="fill:#2c56fe"/><path d="M2794.32,2499.24c-16.33-4-39.49,1.2-97.25,50.77-58.43,50.14-121,103.8-140.48,194.62-19.62,91.28,15.58,167.17,49.74,240.81,34.51,74.38,49.5,67.77,98.7,155,45.37,80.47,48.27,113.86,108.86,273.79,70.85,187,72.45,156.08,89.06,221,23.52,92,8.57,108.15,16.49,356.26,6,187.95,15.63,211.16-2.71,282.55-15,58.32-34.23,133.25-94.8,203.95-37.14,43.38-79.45,73-72.37,85.82,6.2,11.18,45.28.69,87-11.54,155.41-45.59,233.11-68.38,254.78-88.86,70-66.17,128.58-212.76,161.3-224.52a115.92,115.92,0,0,1,14.37-4.07c11.89-2,22.27-.27,43-.51,0,0,10.79.36,35-2,42-4.12,59.56-39,99.41-56.45,51.17-22.44,74.53,12,105.1-6.23,52.28-31.26-5.57-138.38,41.24-272.14,9.91-28.32,46.32-132.37,133.59-164.93,43.81-16.35,104.15-3.91,224.82,21,86.82,17.9,81.93,23.39,130.25,28.7,95.76,10.53,165.68-5.44,208.37-15.61,58.67-14,88.4-21.45,107.85-45.61,41-50.94,17.05-129.22,11.23-148.23-6.92-22.63-25.11-70.09-125.81-157.48-56.13-48.72-151.09-129.64-293.92-180.66-66.25-23.66-118.49-32.22-173.86-41.28-29.21-4.78-48.86-6.71-72.43-5.09-21.63,1.49-20.58,4.19-82.42,15.07l-68.32,11.32h0a323.29,323.29,0,0,0-50.52,23c-38.6,21.79-47.92,37.64-72.33,49.38-41.88,20.15-86.8,8.34-98.19,5.35-20.08-5.28-44.08-16.39-131.27-125.59-56.83-71.17-85.25-106.76-110.33-153.41-23.05-42.86-25.77-58.84-52.73-97.93-26.51-38.43-41.25-48.18-68-88.24-21.88-32.77-19.95-38.13-47.69-89.25-41.91-77.23-48-68.14-104.94-162.61C2821.44,2521.23,2815.1,2504.37,2794.32,2499.24Z" transform="translate(-1138.11 -238.48)" style="fill:#2c56fe"/><path d="M3033.31,1997.45c-12.12-29.09-19.27-23.41-34.14-54.14-1.48-3.06-4.89-10.31-11.75-12.33-7.25-2.14-14.21,2.78-22.65,7.92-11.21,6.84-23.93,11-35.1,17.91q-.3.18-113.07,57.66-158.55,80.84-158.7,80.89c-11.45,4.39-30.54,11.22-52.24,26.67-16.35,11.63-13.84,13.68-41.57,35.59-16.44,13-22.88,16.67-28.25,27-5.48,10.53-5,18.64-6.24,34.84-1.13,14.8-1,1.41-8.3,54.75-12,87.51-7.09,90.12-15.83,104.28-7.84,12.71-12.78,13.85-59,47.9-80.18,59.09-85.79,70.74-85,80.66,1.44,18.12,23.07,16.43,53.68,52.61,29.35,34.7,27.77,57.9,46.92,61.77,4,.8,10.89,1.18,57-31.61,20.91-14.86,38.24-27.17,62.57-47.07,14-11.45,23.51-19.85,40.42-30.41,31.17-19.46,41.84-17.77,46.65-16.22,12.7,4.09,18.28,18.09,22.14,26.55,21.62,47.38,67.92,93.17,82.31,87.8,18.64-6.95,15.61-111.54,14.3-157-.1-3.43-.46-13.53,5.77-22.27,5.66-7.92,14-10.89,17.32-12.09,32.22-11.7,62.35-28.51,93.71-42.35,9-4,21.23-10.07,45.66-22.25,43.19-21.53,39.67-21.17,66.94-34.35,23-11.13,44.35-26.19,68.56-34.43,6.2-2.11,19-6.16,26.13-17.81,4.55-7.44,5.43-15.76,6.06-21.64.69-6.52,1.89-15.61-1.45-26-2.82-8.73-5.89-9.35-10.38-19.19-3.33-7.31-8.1-17.77-6.29-26.11,2.93-13.44,21.51-14.75,62.37-34.91,27-13.32,34.26-20.34,38.76-25.57,5.16-6,21.1-24.49,15.67-41.23-6.42-19.77-38.45-24.17-48.66-25.57-16.22-2.22-29,.23-53.6,5-20.7,4-31.05,6-41.24,9.07-10.93,3.34-12.47,4.61-15.82,3.66C3043.58,2061.67,3049.36,2036,3033.31,1997.45Z" transform="translate(-1138.11 -238.48)" style="fill:#2c56fe"/><polyline points="809.57 1290.63 1851.94 851.82 1977.04 1073.7 1081.22 1625.23" style="fill:#fff"/><path d="M2319.18,2498.14c-26.2-3.79-53.75.72-75.61,15.45-50.22,33.69-38.66,81.47-14.09,124.65-10.28,5.9-7,4.39-70.09,40.74a256.65,256.65,0,0,0-95.3-30.08c-5.36-.54-30.15-5.08-35.23,0-8.49,6.14-15,29.27-19.33,38.75-12.1,26.83-22.4,54.56-29.45,83.1-1.44,5.69-1.26,7.77.82,8.77-30.29,17.83-70.11,44.27-73.17,78.76-2.85,31.5,29.28,76.64,70.19,86-129.3,57.79-271.27,96.11-417.5,109-44.63,3.89-51.13,7.5-71.82-32.88-141-273.87-155.55-608.85-149.49-914.94,2.26-116.25,8.13-268.91,83.65-365.11C1481,1666,1586.34,1598.11,1678.84,1559l5.51,22.31a80.73,80.73,0,0,0,156.72-38.84l-5.42-21.86c92.31-5.69,185.44,18.25,252.83,80.22,73.16,67.11,105.68,166.83,130.89,262.85q24,92,42.63,185.27C2307.87,2278.88,2314,2440,2319.18,2498.14Z" transform="translate(-1138.11 -238.48)" style="fill:#fff"/><g id="sleeveleft"><path d="M2033.56,2620.27,2003.39,2767c-46.91,25.15-108.67,61.31-93.49,111.65L1447.05,2828A287,287,0,0,1,1196,2595c-51.4-278,3.52-593.64,186.71-813.5A1013.92,1013.92,0,0,1,1508,1655.37l71.17,420-69.91,460.5Z" transform="translate(-1138.11 -238.48)" style="fill:#fff"/></g><path d="M1927.06,1036c-2.89,9.85-25.92,46.88-23.94,55.55-.21-.91-78.16-341.94-85.36-352.64C1810.36,728,1376,918.31,1364.94,923.08L1440,1090.91c21.31,47.6,102.88,151.48,50.94,199.81-23,21.5-76.87,19.78-105.23,13.82-122.43-25.48-260.43-198.45-241.36-397.36,11.74-121.58,78.32-224.83,174.16-290.77.9.77,136.15,49.71,143.44,131.7,0,0,164.22-65,172-65.85-5.31-3.19-88.08-111.47-206.85-120.23C1746.72,451.92,1998.8,793.5,1927.06,1036Z" transform="translate(-1138.11 -238.48)" style="fill:#fff"/><path d="M3147.05,2020.38c7.5-11.79,22.95-36.11,50.95-39.59,19.9-2.48,36.48,6.78,43.36,10.62,7.74,4.32,13.11,7.33,18.18,13.61s5.83,10.8,10.64,12.69c6.92,2.72,15.07-2.88,17.25-4.29,14.23-9.22,31.75-7,123.89-28.22,83.43-19.26,90.08-26,108.49-18.33,20.93,8.69,43.94,30.49,44.71,58.28.89,32.16-28.55,52.93-33.16,56.06-10.41,7.07-18.6,8.75-43.81,13.94,0,0-65.82,13.58-93.09,19.43-66.54,14.27-47.2,14.07-72.94,18-12.16,1.84-21.19,2.6-30.79,9.53-15.39,11.12-13,24.25-26.76,37.38-17.56,16.82-42.93,15.91-45.81,15.77-36.47-1.84-67.78-37.9-62.17-53,3.67-9.9,20.65-4.13,37.61-20.27,2.92-2.77,19.46-19.17,16.13-39.95-3.15-19.67-22.64-34.13-39.63-35.73s-28.06,10-32.76,5.28C3131.32,2045.47,3145.66,2022.58,3147.05,2020.38Z" transform="translate(-1138.11 -238.48)" style="fill:#404040"/><path d="M1949.63,2933.2c-22.84-13.66-44.91-43-41.9-74.92,1.43-15.19,8.07-25.92,11.66-31.73,19.06-30.83,52.57-39.63,62.13-42.13,6-1.58,10.07-2.62,15.85-2.6,23.27,0,40.11,17.07,45.17,22.19,25.48,25.75,8.75,55,34.09,75.87,7.19,5.9,14.31,8.5,14.29,14.29,0,7.53-12.1,11.48-31.88,24.19-21,13.52-19.62,16.92-29.86,22.18C2005.83,2952.55,1973.41,2947.44,1949.63,2933.2Z" transform="translate(-1138.11 -238.48)" style="fill:#404040"/><path d="M2235.52,2749c-1.62-5.07-4.63-11.18-23.09-28.59-31.76-30-47.61-35.19-46.19-44.53.86-5.59,12.5-11.13,35.74-22,23-10.73,28.32-11.19,30.24-16.84,4.13-12.17-17.36-20-23.64-44.74-6.94-27.27,10.39-52.54,13.19-56.63,14.47-21.09,34.79-28.63,44-31.88,33.84-12,64.3-1.61,80.26,3.84a161.88,161.88,0,0,1,57.73,35.74,239.31,239.31,0,0,1,23.09,26.94,309.2,309.2,0,0,1,18.14,27.49c8.53,14.11,12.79,21.16,15.4,28.59,5.81,16.54,4.91,30.91,4.4,37.93-2.07,28.3-15.36,47.81-22,57.23-12.15,17.35-25.76,36.79-40.72,35.13-21.77-2.4-26.24-47.21-46.18-47.28-7.3,0-9.06,6-26.94,19.25-14.89,11-20.5,11.95-36.29,21.44-37.47,22.51-52.27,45.27-58.27,41.23C2229.05,2787.74,2242.38,2770.47,2235.52,2749Z" transform="translate(-1138.11 -238.48)" style="fill:#404040"/><path d="M3095.82,2389.2c-63-10.12-112.37,8.37-211,45.35-53.09,19.91-79.63,37-83.12,60.45-2.17,14.61,5.4,26.64,28.59,60.31,36.29,52.68,54.44,79,62.78,88.71,38.27,44.49,29.56,48.27,141.84,221,64.85,99.77,73.69,107.64,117.93,179.78,2.59,4.23,20,32.69,44.53,70.1,47.64,72.72,66.32,94.3,79.17,108,27.8,29.71,41.7,44.56,66.8,56.9,8.88,4.37,63.58,31.25,119.57,12.37,36.76-12.39,32.8-30.6,91.54-57.73a502,502,0,0,1,59.38-23.09c38.82-11.64,50.64-8.7,64.75-21.08,21.2-18.6,22.25-49.6,22.82-66.32.91-26.84-5.58-55-32.81-104.3A608.6,608.6,0,0,0,3602,2922.5c-52.05-62.13-9.81-20.29-174.5-237.46-55.66-73.41-83.5-110.11-91.59-119.15C3251.82,2472.05,3191.36,2404.53,3095.82,2389.2Z" transform="translate(-1138.11 -238.48)" style="fill:#5fff9f"/><path d="M2794.92,2173.13c-5.49-67.27,45-130.58,109.68-146.79,48.11-12.06,106.73,1.27,142,44.7,43.54,53.64,24.76,120.34,21.26,132.76-4.3,15.29-16.75,59.51-59.42,84.41-58.86,34.36-123.8,1.94-133.11-2.9C2867.59,2281.3,2800.8,2245.19,2794.92,2173.13Z" transform="translate(-1138.11 -238.48)" style="fill:#5fff9f"/><path d="M4409.25,3683.92c10.29-23.55,13.94-48,13.06-74.25-3.75-9.32,10.69-59.63-90-158.62-137.94-135.6-278.51-216.51-442.41-254.64a529.69,529.69,0,0,0-211.36-6.1c48-72.77,13.24-140-35.72-210-160.69-229-278.06-376.39-313.21-422.58-118.3-151.93-228.15-214.86-405.38-137.61l-9.41-48.7,201.41-101.14a4.48,4.48,0,0,0,2.48-4.28l-2.54-45.67a4.56,4.56,0,0,0-.27-1.32l-16.4-44c8.26-3.53,25.57-11.81,53-25.35,18,31.6,40.54,49.18,78.79,49.18,30.53,0,50.82-26.66,60.73-54.15,56.22-12.23,135-32.26,190.15-44.16,29.14-6.3,59-14.4,75.57-37.74,32.09-45.15-13.52-104.71-41.33-100-80.92,13.17-162.72,25.6-239.77,50.72a4.46,4.46,0,0,0-3,3.49c-40.92-59.19-125.67-56-139.56,30.21l-77.43,13-34.29-92a4.59,4.59,0,0,0-1-1.54l-34-35.73a4.5,4.5,0,0,0-5.33-.91C2627,2111.25,2596.92,2126.26,2596,2127.17l-60.11,57.46a4.47,4.47,0,0,0-1.34,2.58l-29,191.29-153.19,124.39a123.72,123.72,0,0,0-28.85-8.55c-8.52-103.85-14.23-231.9-57-446.29-12-60.05-26.06-121.34-41.87-182.25,319.37-196.63,851.51-524,893-549.77a4.5,4.5,0,0,0,1.57-6.06l-7.12-12.64c67.89-33.92,36.31-17.93,118.74-51.94,59.49-24.74,147.21-51.29,165.88-72.74,23.72-27.21,12.61-56-17.45-60.29,13.49-6,26-11,32.89-24.55,12.69-24.89-2.8-56.66-42.24-54.46,49.15-39.09,21.52-90.18-15.83-86.2,26.71-17.63,58.3-34.69,71.54-61C3443.6,850,3412.78,817.71,3374,820c-21.69,1.36-43,13.31-57.15,22.19-115.94,73.33-209.59,173.43-311.31,266.4L2994,1088.08a4.52,4.52,0,0,0-5.69-1.94c-16.41,6.86-1024.2,431.16-1040.6,438.06l-3.89-1.35c0,.25.1.49.14.74-33-7-68.22-9.59-104.79-7.65l-34.93-141.41c103-61.91,114.18-181.5,102.08-279.91a4.4,4.4,0,0,0,1.21-4.07c-1-6.31,21.37-44.74,23.87-53.28C1992.7,830.05,1817.84,540.82,1557,536.74c-59.14-.86-95.43,10.27-131.39,21-71.1,20.5-114.62,58.43-109.61,55-100.54,69.18-164.73,176.35-176.1,294.06-11.93,124.42,37.85,254.2,129.89,338.7,50.82,46.74,112.93,75.75,181.54,65.81,49.87,56,132.67,90.22,202.71,95.85-4.16.82-8.1,1.6-11.9,2.28a4.53,4.53,0,0,0-3.6,5.53l35,141.48c-57.89,24.9-116.2,58.76-165,95.82a4.48,4.48,0,0,0-3.54,1c-45.72,38.53-52.92,49.06-96.13,88.45.47-.43,1.71-.59,3.46-.56-35.92,38.64-65.48,76.07-95.19,123.65-39.07,69.85-99.39,193.19-126.25,343a1095.28,1095.28,0,0,0-16.32,169.87,1045.29,1045.29,0,0,0,8.9,150.1c7.71,58.71,11.57,88.07,27.22,123.7,4.83,11,28,61.82,74.22,103.91a344.78,344.78,0,0,0,55.25,40.41c14.57,8.41,28.8,15.07,28.8,15.07,23.2,10.87,29.57,10.89,35.6,14.42.54.32,1.13.69,1.76,1.13a28.15,28.15,0,0,1,2.29,1.82c4,3.55,4.76,11.36,4.76,11.36,2,20.3,12.58,38.81,18.69,58.28.71,2.25,6.59,16.56,18.33,45.08,57.46,139.65,5.76,11.38,30,68.54a168.43,168.43,0,0,0,18,30.42c8.46,11.48,12.59,13.65,15,14.66,4.49,1.84,8.3,1.78,10.63,5.31.44.67,1.5,2.49,1.47,10.82a94.93,94.93,0,0,1-.71,11.22,324.14,324.14,0,0,0-3.61,37.54,284.72,284.72,0,0,0,1.38,44.33c3,26.75,9.55,46.38,14.12,59.93a320.63,320.63,0,0,0,25.84,57.72c10.07,17.33,15.11,26,20.89,32.44,8.71,9.74,17,15.71,15.21,21.15-1,3.11-4.61,3.6-15.29,8.33-6.46,2.85-12.7,6.18-19.17,9-8.56,3.73-22.58,11-46.18,26.94a243.75,243.75,0,0,0-70.32,50.4s-26.36,21.22-28.48,57.19c-6.64,112.16,161.17,181.51,253,187.24,31.09,1.91,61.52.16,93.1-4.41-104.62,128.71-118,287.72-136.63,452.89-3.09,9.27-16.43,174.28-28.72,242-24.24,133.94-14.8,171.59,123.46,227-1.36,79,113.47,212.83,266.93,229.38,137.1,15.42,268.75-65.28,312.88-155.33,440.74-95,451.68-93,452.81-94.2,3.14-1.44,23.44-.21,44.83-3.34,31.27-4.36,295.16-67.93,538.65-234.34.91-.62,123.69-84.78,120.46-95-4.46-14.65-11-44.78-12.4-55.06a93.46,93.46,0,0,0,8.32-4.93c81.44,214.63,294.67,361.65,536.14,348.19C4414.94,4505.46,4644.29,4028.24,4409.25,3683.92Zm-710.71,81.16c-120.21,237.59,62,520.53,330.8,505.54a346.29,346.29,0,0,0,170.94-56.05A339.6,339.6,0,0,1,3919.33,4363c-178.84,0-329.11-140.25-339.17-320.92C3574.26,3935.78,3619.47,3833.18,3698.54,3765.08ZM4166,3789.14c103.58,109.12,123.61,274.64,46.73,405.75a337,337,0,0,1-183.89,66.71c-272.08,15-447.76-280-312.12-511.14a335.09,335.09,0,0,1,37.89-24.56c82.8-5.6,203.44,31.66,288.35,49.84C4076.07,3782.85,4119.91,3788.6,4166,3789.14Zm-278.12-583.93c162.2,37.73,301.42,117.9,438.12,252.28,42,41.3,85.2,91.71,87.26,152.48,4.32,128.85-110.47,170.28-239,170.32-53.75-131.5-116.73-232-192.5-307.08-94.36-93.5-214.14-148.53-328.62-151-115.34-2.61-232.57,53.37-297,137.15,56.64-130.12,123.29-165.84,122.86-170.43C3588.58,3198.39,3745.7,3172.08,3887.89,3205.21Zm-898.2-798.91c145.5-39.31,240.69,38.68,332.82,157,9.67,12.71,147.42,186.35,312.95,422.22,49.76,71.1,82.93,136.06,30.37,207.24-75.06,15.24-144,47.27-198.6,94.34-54.3,18.47-112.82-4.52-150.26-33.11-45.19-34.51-76.67-83.07-107.11-130-53.57-82.56-407-627.88-408.17-629C2862.85,2460.15,2924.81,2423.82,2989.69,2406.3Zm-397.94,551.06c-.64.07-1.29.13-1.93.21C2548,2921,2498,2892.43,2445.92,2876c-101.42-31.89-219.51-24.46-303.33-11.92.24-.83.46-1.64.67-2.47,3.55-2.42,5.06-3.51,9.22-6.43,22,5.73,40.92-8.27,42.57-29.88,6.79-4.71,13.61-9.5,20.75-14.62a38.88,38.88,0,0,0,16.09-11.23l76.86-54.08,1.12-.79c88,66.28,174.06-13.22,157.15-104,120.09,40.35,107.95,37.94,111.28,37.21C2526.58,2772.3,2543.25,2859.71,2591.75,2957.36Zm220.41,1534.36c-7.51,7.47-15.51,14.48-24.64,19.91-5.33.56-1,1-34.3,9.56,5.21-87.54-69.46-162-168.71-154.67,18.08-14.75-41,30.65,171.33-131.79,51.81-13.36,66.34-11.06,167.39-49.86C2910.69,4290.47,2876,4406.07,2812.16,4491.72ZM2475,4621.63c-26.12-115.23-60.51-221.92-102.28-317.37,57-6.51,114.1-14.8,170.81-24.81-2.87,9.05-.67,12.2,29.26,93.65v0h0l63.16,173.69a38,38,0,0,0-5.81,3.44c-17.37,12.8-17.47,34.84-10.3,40.31Q2547.35,4606,2475,4621.63Zm269-98c-24,6-20.92,5.17-100.08,18.55l-60.67-166.69C2678,4367.31,2751.07,4439.42,2744,4523.62Zm-82.73-1446.26c128.07,254,197,562.9,200.36,832.61a2940.68,2940.68,0,0,1-612.3,96.92c-5.83.3-5.59,9,.23,9,45.55-4.76,286.34-9.32,612.22-96.66.32,100.56-14.74,192-45,289.31-121.33,35.7-356.45,82.9-546.66,96.43-14.76,1-17.87,3.43-21.32-6.75-2.19-6.68-.73-18.21.55-28.38,13.73-109.53-17.49-543.65-78.39-797.48-2.66-11.32-40.81-134.42-35.4-148.49a4.47,4.47,0,0,0-4.17-7.68c0-.13,0-.27-.07-.4-8.81,2.15-17.94,9.51-26.27,15.66-51.51,28.88-162.65,78-221.07,86.69-44.54,6.65-90,5.93-133.81-3.07-160.54-41.53-247.49-199.51-215-347.78a35.71,35.71,0,0,1,2.62-7.62c127.4-7,290.28-43.69,440.83-110.78,41,8.2,80.17-26,113.19-50.82,14.74,6.54,29.7,1.87,39.38-10.28a69.26,69.26,0,0,0,7.94-14.08c176-27.17,344.58-14.39,467.26,111.7C2628.48,3026.33,2645.52,3053.86,2661.24,3077.36Zm-728.58,598.85c4.48-.61,244.63-29.27,262.71-32.57,15.62,99.06,37.55,295,44.17,429.16-100-131.39-261.9-259.19-423.74-223.23-62.57,13.79-128.54,68-159.66,126.91,15-99.62,42-206.48,114.43-296.82C1784.39,3679.16,1821,3691.66,1932.66,3676.21ZM1784.61,2584.78c-109.76,66.68-71.41,238.43-63.64,268.63l-47.59-5.2c-31.81-91.93-7.38-202.19,60.94-271.52Zm372.61,98.16h0c124.26,67.5,66.37,137.57,32.59,118.67-3-7.63-22-31.88-44.6-47.83-4.85-3.45-10.1,3.93-5.21,7.38a154.6,154.6,0,0,1,39.17,40.57,4.42,4.42,0,0,0,1,4c13.74,15.34,3.65,44.42-21.5,41.54a25.72,25.72,0,0,1-15.33-7.26,161.85,161.85,0,0,0-46.52-65.25c-4.57-3.84-10.39,3.06-5.82,6.91a152.8,152.8,0,0,1,42.44,57.89,4.45,4.45,0,0,0,.71,3.83h0c5.77,7.57-3.86,31-10,38.81-14.21,17.78-41.25,13.49-54.23-28.71-12.22-39.18-12.77-54-55.53-70.43-17.87-6.9-26.52-6.56-30.6-7.39a29.63,29.63,0,0,1,.76-3.84c10.19-41.34,30-84.07,33.14-92.3,9.84-26.19,12.89-27.81,18.93-28.38,7.79-.73,35.24,3.21,39.16,3.84A256.35,256.35,0,0,1,2157.22,2682.94Zm74.51-40.78h0l0,0,1.35-.8c33.86-19.73,64.59-33.3,97.55.78,14.4,14.85,28.86,48.24,17.84,64.67-3.72,5.47,9.17-6.8-108.32,75.77,11.43-43.76-32.74-80.8-71.77-103.57C2220.41,2649,2226.07,2645.4,2231.73,2642.16Zm-37.48,172.66c-.14-.68-.19-1.39-.37-2.05.89.19,1.83.26,2.75.39Zm-215.15,125c-3.34-1.4-28.76-4.74-51.82-36.73-37.43-51.66-.39-86.24,54.24-118.72,5.72,1.28,12.14.37,29.56,7.08,39.51,15.17,38.58,28,50.14,64.68,3.48,11.32,9.59,27,22.29,36.85C2052.88,2916.35,2016.07,2947.77,1979.1,2939.87Zm-307.39-78a4.49,4.49,0,0,0,4.48-4.23l230.35,25.17c7.86,24.16,30.86,51.24,58.56,62.22-215.63,94-406.42,103.36-413.51,104.56-36.41,3.36-41,3.77-59-31.21-25.83-50.15-53.28-116.78-75.76-190.86,30,6.51,23,3.61,249.83,29.08C1667.32,2858.29,1667.91,2861.84,1671.71,2861.84ZM2581.57,2672c-1.48-3.91,1.94-.38-116.38-41.57l156.91-118.05,44.63-11.75,30.34,49.41C2650.53,2583.7,2610.68,2621.47,2581.57,2672Zm196.74-200.76-8.38,31.74c-22.25,13.09-44.29,26.83-65.51,41.75l-28.57-46.5C2814,2461.83,2769,2473.67,2778.31,2471.21Zm719-496.12,20.62-3.37c18.72-3.07,60.6,46.34,32.5,85.89-14.73,20.72-41.57,28-70.12,34.14-53,11.45-129.85,30.88-185.24,43.09,9.36-35.36,1.86-80.51-18-112.7C3283,2023.56,3302.2,2006.84,3497.3,1975.09Zm-353.77,70.53c6-32,26-59.55,58.93-59.55,67.66,0,100.39,89.81,83.42,148.59-7.94,27.3-26.72,55.66-55.29,55.19-34.17-.7-53.2-15-69.94-44.14,1.77-.88,23.64-11.73,25.39-12.65,33.41,33.42,72,19.94,76.17-19.08,2.33-21.53-10.52-71-29.54-87.63-23.69-20.65-62.78-11.41-74.11,16.79l-15,2.52S3143.53,2045.63,3143.53,2045.62Zm20.82,5.7c17.09-2.65,32.69,5.64,40,20.22a37.85,37.85,0,0,1-16.7,50.56c-.91.43-70.43,35.52-91.25,44.5l-36.45-97.75C3081.37,2065.25,3005.3,2078,3164.35,2051.32ZM2983.2,1939.64l31.08,32.63,41.34,110.88a144.83,144.83,0,0,0-120.56-64.69c-79.89,0-144.87,65-144.87,144.88s65,144.87,144.87,144.87c85.66,0,154.88-75,143.56-163.37l10.84,29.08h0l17.75,47.63,2.34,42-313.29,157.32-190.64-288.73Zm87.7,223.7c0,74.9-60.93,135.84-135.84,135.84s-135.84-60.94-135.84-135.84,60.94-135.84,135.84-135.84S3070.9,2088.43,3070.9,2163.34Zm-527.7,26.75,55.09-52.65,191.54,290.09-8.88,33.65-159.21,41.93L2514.46,2379.5Zm-34.07,197.07,104.39,120.34-151.45,113.94c-16.33-49.71-58.22-93.49-100.6-114.38Zm-48.94,282.93c-1.61,33.11-20.46,63.68-46,79.33,17.77-23,3.65-66.72-7.19-91.58-33.37-76.49-107.29-110.86-149.13-101.89-29.53,6.33-41.17,28.65-37.35,53.19-15.5-40.27-7.13-69.86,25.6-91.81C2333.45,2458.47,2465.23,2570.65,2460.19,2670.09Zm366.68-1185.71-604.7,372.29C2180.08,1697.8,2121.5,1570.56,1962.1,1528l720.73-303.41C2652.51,1285,2700.74,1427.57,2826.87,1484.38ZM2202.36,1819.1c-23.4-45.26-63.16-71.82-98.8-108.21a376.51,376.51,0,0,1-91.19-155.16C2120.36,1605.94,2168.71,1704.33,2202.36,1819.1ZM3321.7,849.85c13.3-8.34,33.26-19.58,52.87-20.81,32.37-1.85,57.61,23.55,42.86,53.08-12,23.75-42.72,40.3-62.81,53.74-8.95,6-18,11.85-28.28,18.19-8-4.32-18.61-6.82-31.65-7.28-47.87-1.74-96.78,10.38-139,33.71C3207.61,933.2,3262,887.64,3321.7,849.85ZM3123.83,1010a4.45,4.45,0,0,0,4.24-.61c46.68-36.14,107.15-55.56,166.3-53.54,14.67.52,33.32,4,38.81,17.83,8.07,20.24-12.15,27.47-30.23,37a462.59,462.59,0,0,1-66.39,26.7,4.52,4.52,0,0,0,1.62,8.82c21.45-1.4,36.38,22.71,22,42.73-6.95,9.63-18.33,11.19-30.74,15.16l-92.5,29.77c-5.61,1.82-3,10.44,2.77,8.61,97.8-31.42,90.28-29.21,98.93-31.71,10.52-3,21.39-6.19,28.86-16.55,13.15-18.24,8.57-43.21-12.46-53.47a472.29,472.29,0,0,0,52-22c23.29-11.33,44.83-22.84,34.62-48.48a29.51,29.51,0,0,0-5.78-9.07c10.65-3.93,22.94-7.69,32.42-3.49,29.35,13.14,25.91,53.7-17.92,77.72-6.09,3.3-36.65,17.94-58,27.39-5.45,2.43-1.81,10.68,3.67,8.26,53.63-24.17,45.1-21.43,49.77-23.14,47.06-18.45,71.06,10.52,58.18,35.76-6,11.85-18.46,15.73-31.63,21.78-16.51,7.55-33.49,17.4-50.74,27.18-5.28,3-.69,10.79,4.43,7.87,29.84-16.79,32-18.45,37.29-19.16,33.28-5,49,19.42,26.46,45.32-16.54,19-106.67,47.09-162.53,70.33-78,32.2-47,16.25-119.69,52.47l-97.42-172.79C3049,1081.22,3080.15,1050.88,3123.83,1010Zm-245,442.46-42.57,26.21c-73-30.65-129.87-96.9-148.76-173.83-6-24.46-9.47-58.9,8.09-84.16a4.37,4.37,0,0,0,.72-1.75l45.35-19.09C2719.63,1375.45,2850.84,1440.63,2878.79,1452.41ZM1427.31,566.6c79.31,6.06,144.36,55.49,198.27,113.58-29.44,10.17-130.94,50.16-159.86,61.59-6.34-40.25-44-74-78.58-95.94-24.32-15.44-41-22.52-59.42-30.66C1356.87,593.68,1390.34,577.35,1427.31,566.6Zm-40.67,733.51c-120.23-25-256.59-196.38-237.78-392.5,11-114.27,73.05-218.43,170.26-286.12C1374,643,1452.2,690,1457.46,748.52a4.53,4.53,0,0,0,6.16,3.79c170.82-67.54,172.42-65.81,173.43-66.67a4.15,4.15,0,0,0,0-6.49c-15-13.34-83.86-101-188.76-119,308-87.87,543.41,241.53,474.46,474.61h0c-1.66,5.66-12.82,25.15-19.07,39-3.22-14-74.47-325.9-82.16-337.29-3.26-4.85-6.87-10.4-256.18,95.43-7.1,2.37-178.87,77-202.19,87.14a4.53,4.53,0,0,0-2.32,6c.42.93-4-8.82,75.08,167.83,21,47,100.83,149.22,52,194.66C1466.22,1307.62,1414.3,1305.93,1386.64,1300.11Zm75.1,9.22c12.75-2.92,24.2-7.76,32.29-15.3,55.11-51.28-28.24-156.63-49.9-205l-32.92-73.61c6.22-26.09,11.8-48.6,23-75.75,6.48-15.55,26.08-38.46,29.6-54.66l.35-.15c-2.75,25.63,4,48.62,34.9,46.77,17-1.08,30.44-12.83,39-26.56,8.46-13.55,22.5-40.91,26.2-63l2.64-1.13c1.51,29.52-9.29,66-18.63,90.28,64.16,23.29,226.3-7,294.81-33.85,67.45,164.28,104.5,388.56-51.62,474.11C1683.86,1429.64,1536,1388.43,1461.74,1309.33Zm189,107.63c4.11,1.44,5.12,1.67,6.54,2.11,33.3,18.69,75.71,33.24,119.87,38.76,6.89.84,29.5,5.25,38.88,2,.77,3.11,16.25,65.85,15.26,61.85l5.42,21.86a76.21,76.21,0,0,1-148,36.67c-.4-1.64-5.86-23.71-5.53-22.36l-34.77-140.46ZM1680,1582.39a85.25,85.25,0,0,0,165.49-41l-4.09-16.57a390.53,390.53,0,0,1,104.4,8.41c26.62,149.6,131.4,283.33,270.83,344,.1-2.25-.09-4.46-.15-6.69,64.28,248.32,82.14,420.25,97.78,622.45-25.16-2.57-52,2.65-73.16,16.86-37.54,25.18-52,64-17.69,126.72-29.13,17.08-47.15,27.5-64.06,37.24-44.18-23.6-108.29-34.14-125.7-31.35l4.38-21.28a4.52,4.52,0,0,0-3.71-5.36L1524,2533.69c141.55-96.42,231.17-265.58,230.15-437-1-168.69-79.9-323.8-241.13-436.48,48-36.64,105.51-70.22,162.71-95Zm-256.42,160c41.48,6.94,54,12.71,83.78,34.81,72.52,53.87,105.67,140.68,124.49,228.34,20.47,95.36,25.13,183.79-11.3,276.3-17.69,44.91-39,67.68-81.62,89.2l44.78-294.94c.91-5.91-8-7.23-8.92-1.35l-69.92,460.49a4.52,4.52,0,0,0,3.75,5.14c2,.33,17.14,3.81,215.05,34.61-66.36,70.88-90.3,179.89-60.14,272.16l-216-23.6c-123-13.41-224.57-107.73-247.08-229.37C1146.29,2301.08,1211.06,1967.76,1423.54,1742.37ZM1672.79,3667.1c-86.24-5.38-250.72-73-244.53-177.7,1.67-28.47,25.17-54.94,57.58-78.46.06,0-.24.13.62-.37,0,0,.09,0,.14,0,42-23.5,42.06-30.35,117.59-63.7,13.63,13.79,11.39,21,49.15,52.86,61.57,51.93,138,78,213.6,75.8,47.59-1.38,92.71-19.24,138.19-32.63,37.55-11,75.69-20,113-31.81,5.1-1.62,17.28-3.59,23.95-6.91,18.16,66.92,16.33,50.85,29.92,113.92C1942.34,3618.21,1803.25,3675.09,1672.79,3667.1Zm-63.91,701.13c9.94-54.83,4.95-32.14,29.86-251.91l0,0a4.36,4.36,0,0,0,2.19-1.78c30.09-24.29,76.64-32.31,111.94-19.32,47.4,17.44,86.36,57.06,122.09,97.15,149.9,168,182.8,310.91,237.25,477.19-170.87-12.53-283-42.69-386.79-84.82C1595.24,4531.55,1584.81,4501.25,1608.88,4368.23Zm483.84,360.4c-117,36.64-229.46-48.16-242.48-91.82,92.37,24.75,199.41,39.95,318.27,45.15C2158.51,4704.25,2116.09,4721.24,2092.72,4728.63Zm125.15-54.05c-22-102.91-37-201.14-119.17-361.47-63.72-138.95-163-318-316.31-315-54.22,1.07-114.16,32.13-139.84,84.89,2.52-21.66,5.76-48.95,8.56-70.61,18.93-67.75,95.16-138.23,166.64-154,161.37-35.83,324,96.86,422.45,230.31,1.49,35.24,4.52,145.25.15,180-1.41,11.12-3,23.72-.15,32.37,5.57,16.47,14.61,14.05,30.52,12.9,31.45-2.24,61.53-5.22,92.6-8.65,42,95.53,76.57,202.53,102.79,318.16C2201.34,4680.4,2231.24,4674.88,2217.87,4674.58ZM2823.2,4555.9c-18.23,4.86-26.46,6.94-58.63,7.7,61.95-73.18,122.85-137.08,159.21-322.72a4,4,0,0,0,.29-.84c34.75-248.46,48.42-471.11-18.17-718.74-73.76-275.68-179.76-348.37-262.16-488.36-51.89-88.13-97.55-174.68-86.4-264.7,11.23-90.45,76.2-162.18,150.26-214.68,76.66-48.65,58.54-38.16,86.72-54.32.38,1.71-18.65-28.44,407.95,629.63,29.43,45.39,62.78,96.84,109.21,132.3,34.55,26.38,80.63,44.52,125.34,41.25-147.53,63.09-253.84,201.92-268.19,371.26-6.05,71.45,17.34,135,29.36,204.78,34.27,199.42-4.56,410.31-106.68,585C3023.1,4493.63,2938.65,4525.17,2823.2,4555.9Zm492.69-387.42c-29.43-33.06-27.37-119.79-31.65-164.09-18-187.86,9-373.5,54.92-502.08,52.4-100.26,187.37-173.82,313.76-171,112.19,2.4,229.72,56.47,322.45,148.36,74.22,73.53,136.09,172,189.05,300.59-149.84-2.44-241.65-58.27-384-63.71-84.92-3.25-141.48,35.23-183.82,107-43,72.58-39.43,156.48-64.18,233.7-11.81,36.77-35.38,86.66-80.65,115.57C3403.5,4204.32,3340.12,4195.59,3315.89,4168.48Z" transform="translate(-1138.11 -238.48)"/><path d="M1316.28,1915c-.38-25.08,45.32-26.13,73.67-86.32,17-36,8.1-51.58,31.15-83.71,6.5-9.06,2.66-1.49,54.07-52.08.26-.26,16.86-14.47,50-42.88a68.44,68.44,0,0,1,17.68-11.41,79.93,79.93,0,0,1,30.7-5.64c9.5.23,118.25,12,221,138.55,40.7,50.1,172.74,212.65,127,420.58-59.41,270.1-359.54,347.37-373.4,345.49a135.23,135.23,0,0,0-15-2.42c-10-1-16.12-.38-17.88-3.86-.29-.57-.41-1.17,0-5.22a77.69,77.69,0,0,1,1.65-11.27c2-7.92,3.64-26.79,7.15-51.13,3.75-26,4.92-25.94,9.9-56.9,3.8-23.68,5.73-40,6.85-48.66,7.91-61.22,22.1-100.54,32.18-158.33,12-68.51,17.92-102.76,10.64-123.72C1545.91,1967.32,1317.13,1971.14,1316.28,1915Z" transform="translate(-1138.11 -238.48)" style="fill:#fff"/><circle cx="3982.85" cy="4004.05" r="148.65" transform="translate(-2802.86 3750.58) rotate(-45)"/><path d="M3169.36,2868.78l29.51-256.87c.68-6-8.29-6.93-9-1l-29.51,256.87C3159.71,2873.63,3168.66,2874.83,3169.36,2868.78Z" transform="translate(-1138.11 -238.48)"/><path d="M3298.38,2895l29.43-175.51c1-5.9-7.92-7.37-8.91-1.49l-29.42,175.51C3288.48,2899.37,3297.39,2900.89,3298.38,2895Z" transform="translate(-1138.11 -238.48)"/><path d="M2573,3349.91l108.78,595.53c1.08,5.9,10,4.3,8.89-1.63l-108.78-595.52C2580.76,3342.38,2571.89,3344,2573,3349.91Z" transform="translate(-1138.11 -238.48)"/><path d="M1805.93,983.26c28.33-3.49,49.92-17.37,48.24-31s-26-21.87-54.32-18.38-49.91,17.37-48.23,31S1777.61,986.74,1805.93,983.26Z" transform="translate(-1138.11 -238.48)"/><path d="M1642.77,987.89c-7.17-10.92-35.09-5.25-62.37,12.65s-43.59,41.27-36.43,52.18,35.08,5.24,62.36-12.66S1649.93,998.8,1642.77,987.89Z" transform="translate(-1138.11 -238.48)"/><path d="M1623.28,1048.14a14.77,14.77,0,1,0,10.42,18.11A14.78,14.78,0,0,0,1623.28,1048.14Z" transform="translate(-1138.11 -238.48)"/><path d="M1811.78,1002.17a14.77,14.77,0,1,0,10.42,18.11A14.77,14.77,0,0,0,1811.78,1002.17Z" transform="translate(-1138.11 -238.48)"/><path d="M1793.67,1080.54c-5.64-1.94-8.6,6.59-3,8.54,14.49,5,16.9,24.74,4.14,33.13-5,3.28,0,10.81,5,7.54C1818.87,1117.2,1815.21,1088,1793.67,1080.54Z" transform="translate(-1138.11 -238.48)"/><path d="M1742.24,1188.4c3.51-4.84-3.83-10.14-7.32-5.29-11.55,16-34.91,22.83-53.29,15.51s-30.64-28.34-28-47.9c.8-6-8.17-7.07-8.95-1.2-3.2,23.87,11.26,48.58,33.63,57.49S1728.24,1207.81,1742.24,1188.4Z" transform="translate(-1138.11 -238.48)"/><path d="M2953.48,2078.58l-74.6,141.68c-2.81,5.31,5.2,9.47,8,4.2l74.6-141.67C2964.27,2077.49,2956.25,2073.31,2953.48,2078.58Z" transform="translate(-1138.11 -238.48)"/><path d="M2983.17,2133.09,2948,2208c-2.55,5.4,5.64,9.25,8.17,3.84l35.2-74.91C2993.89,2131.54,2985.73,2127.67,2983.17,2133.09Z" transform="translate(-1138.11 -238.48)"/><path d="M4281.88,268c-156.83-83-350.28,17.57-370.48,195.6l6.65,281.94c-122.58-9.7-225.57,87.49-225.57,208.24,0,110.55,86.29,201.26,195.05,208.45a44.74,44.74,0,0,1,14.7.44l.08,0C4070.4,1162,4167.68,972.94,4073.94,836l217.14-125C4461.08,611.93,4458,361.38,4281.88,268Zm-380.44,885.71c-110.24,0-199.93-89.69-199.93-199.93,0-115.61,98.87-209,216.76-199.16l3.8,161.16a4.51,4.51,0,0,0,6.76,3.8l137.25-79C4156.64,971.87,4062.83,1153.71,3901.44,1153.71Zm350-598.4c-44.7,84.21-169.8,72.4-197.8-18.73-27.91-90.77,68.35-171.45,153.06-126.64A107.83,107.83,0,0,1,4251.48,555.31Z" transform="translate(-1138.11 -238.48)" style="fill:#ef4444"/><path d="M4288.82,2458.58c2.33,5.49,10.66,2,8.31-3.53a559.22,559.22,0,0,0-42.32-80.53c-3.24-5-10.82-.18-7.62,4.85A550,550,0,0,1,4288.82,2458.58Z" transform="translate(-1138.11 -238.48)" style="fill:#f6d356"/><path d="M4245.92,1779.23c-17.82-21.68-38.64-42.93-63.62-65-4.51-4-10.45,2.83-6,6.77,24.63,21.72,45.11,42.63,62.63,63.94C4242.7,1789.55,4249.76,1783.89,4245.92,1779.23Z" transform="translate(-1138.11 -238.48)" style="fill:#f6d356"/><path d="M4172.25,3131.07a546.76,546.76,0,0,0,59.07-69.19,4.52,4.52,0,0,0-7.34-5.27,537.56,537.56,0,0,1-58.08,68C4161.6,3128.91,4168.05,3135.21,4172.25,3131.07Z" transform="translate(-1138.11 -238.48)" style="fill:#f6d356"/><path d="M4309.58,2208.12a444.32,444.32,0,0,1-36.08,81.65c-2.95,5.19,4.87,9.67,7.85,4.47a454.13,454.13,0,0,0,36.82-83.31C4320,2205.25,4311.44,2202.45,4309.58,2208.12Z" transform="translate(-1138.11 -238.48)" style="fill:#f6d356"/><path d="M4159.05,2427.89a376.25,376.25,0,0,0,68.9-59.81c4-4.41-2.65-10.49-6.69-6.07a367,367,0,0,1-67.22,58.36C4149.09,2423.67,4154,2431.19,4159.05,2427.89Z" transform="translate(-1138.11 -238.48)" style="fill:#f6d356"/><path d="M4199.18,2302.43c-22.82-24-46.89-43.14-71.53-56.85-5.21-2.91-9.61,5-4.39,7.9,23.84,13.26,47.18,31.82,69.37,55.17C4196.76,2313,4203.29,2306.75,4199.18,2302.43Z" transform="translate(-1138.11 -238.48)" style="fill:#f6d356"/><path d="M4278.41,2984.09a615.25,615.25,0,0,0,34.72-84c1.88-5.68-6.72-8.5-8.58-2.83a607.73,607.73,0,0,1-34.2,82.78C4267.65,2985.38,4275.72,2989.42,4278.41,2984.09Z" transform="translate(-1138.11 -238.48)" style="fill:#f6d356"/><path d="M3956.37,2252.56c24.19-15.34,52.7-23.79,80.26-23.79l2.9,0c6.28-.22,5.95-8.9.19-9-1.29.18-43.53-3.17-88.18,25.15C3946.49,2248.13,3951.34,2255.76,3956.37,2252.56Z" transform="translate(-1138.11 -238.48)" style="fill:#f6d356"/><path d="M3984,2461.49c29.92,10.51,60.61,10.67,91.53,3.65,5.82-1.33,3.86-10.11-2-8.81-28.88,6.56-57.94,6.67-86.55-3.36C3981.38,2451,3978.3,2459.5,3984,2461.49Z" transform="translate(-1138.11 -238.48)" style="fill:#f6d356"/><path d="M3834.82,1318.5a271.94,271.94,0,0,0,20.53,89.1c2.31,5.5,10.66,2,8.33-3.5a262.85,262.85,0,0,1-19.85-86.1C3843.48,1311.72,3834.49,1312.75,3834.82,1318.5Z" transform="translate(-1138.11 -238.48)" style="fill:#f6d356"/><path d="M3842.92,1180.43a272.25,272.25,0,0,0-10.91,90.78c.3,6,9.34,5.51,9-.46a263,263,0,0,1,10.54-87.73C3853.36,1177,3844.56,1174.92,3842.92,1180.43Z" transform="translate(-1138.11 -238.48)" style="fill:#f6d356"/><path d="M3964.09,1552.53c4.34,4,10.53-2.6,6.11-6.65-61.56-56.51-59.52-72.31-67.36-66.22a4.51,4.51,0,0,0-.81,6.34C3919.23,1508.23,3939.53,1530,3964.09,1552.53Z" transform="translate(-1138.11 -238.48)" style="fill:#f6d356"/><path d="M4111.7,1657.4l-72.26-54.16c-4.74-3.64-10.23,3.53-5.5,7.17l72.31,54.19C4111,1668.21,4116.45,1661,4111.7,1657.4Z" transform="translate(-1138.11 -238.48)" style="fill:#f6d356"/><path d="M4333.08,2631.65c.62,6,9.6,5,9-.93a625.92,625.92,0,0,0-15.88-89.5c-1.49-5.83-10.22-3.54-8.75,2.22A619.57,619.57,0,0,1,4333.08,2631.65Z" transform="translate(-1138.11 -238.48)" style="fill:#f6d356"/><path d="M3894.76,2316.76c-8.84,31-2.37,63.11,15.82,89.79,3.36,4.93,10.83-.15,7.47-5.09-18.11-26.54-22.19-55.64-14.61-82.22C3905.08,2313.5,3896.37,2311,3894.76,2316.76Z" transform="translate(-1138.11 -238.48)" style="fill:#f6d356"/><path d="M4338.16,2122.1a489.84,489.84,0,0,0,3.12-91,4.78,4.78,0,0,0-4.78-4.25c-10.33.61,2.62,16.87-7.3,94.09C4328.45,2126.84,4337.39,2128.14,4338.16,2122.1Z" transform="translate(-1138.11 -238.48)" style="fill:#f6d356"/><path d="M4327.21,1941.15a437.63,437.63,0,0,0-31.76-85.39c-2.63-5.35-10.75-1.34-8.08,4a430,430,0,0,1,31.09,83.62C4320,1949.24,4328.68,1946.92,4327.21,1941.15Z" transform="translate(-1138.11 -238.48)" style="fill:#f6d356"/><path d="M4335.36,2811.94a658.24,658.24,0,0,0,9.69-90.37c.21-5.84-8.77-6.51-9-.34a647.84,647.84,0,0,1-9.55,89.12C4325.41,2816.24,4334.3,2817.88,4335.36,2811.94Z" transform="translate(-1138.11 -238.48)" style="fill:#f6d356"/><path d="M1882.56,1539.51c22.47-15,55.84-8.17,79.53-3.3,9.53,2,47.49,10.55,90.35,46.18,22.79,18.95,43.54,51.38,84.12,115.46,47.82,75.53,60.49,104.65,66.34,124.25,3.48,11.67,6.23,25.62,16.17,58.63,5.92,19.67,6.83,21,5.79,22.93-13.73,26-272.09-8.56-347.8-171.73C1846.44,1666,1840.46,1567.64,1882.56,1539.51Z" transform="translate(-1138.11 -238.48)" style="fill:#fff"/><path d="M1766.83,2581.92l255.65,44.23q-14.77,36.84-29.14,76.42-13.62,37.65-25.29,73.67-6.46,4.14-13.2,8.8-8.73,6.08-16.49,12.09a82.84,82.84,0,0,0-17,15.4c-18.91,22.65-20.16,49.28-20.07,59.65l-200.75-21a300.25,300.25,0,0,1,66.33-269.26Z" transform="translate(-1138.11 -238.48)" style="fill:#fff"/><path d="M499.31,2175.06" transform="translate(-1138.11 -238.48)" style="fill:#f9f9f7"/><path d="M2729,1205.1l256.78-102.85,115.08,206.2L2865.5,1460.59a263.71,263.71,0,0,1-99.63-94.45C2723.8,1296.9,2726.86,1228.73,2729,1205.1Z" transform="translate(-1138.11 -238.48)" style="fill:#fff"/><path d="M1963.56,1737.25c22.34-18,54-21.6,73.48-39.61,3.6-3.6-15.84-15.13-25.93-13-9.36,2.16-18,7.92-26.62,12.36l-4.53,2.28-35.44,17.85-6,3.07c-3.71,1.17-6.59,3.33-9.47,5.49-3.6,5,0,10.8,5,13a42.36,42.36,0,0,0,29-1.08A1.62,1.62,0,0,0,1963.56,1737.25Z" transform="translate(-1138.11 -238.48)" style="fill:#22c55e"/><path d="M2040.3,1747.18c-15.5,8.08-31.35,16-47.51,23.92l-4.58,2.31-24.1,12.14a12.4,12.4,0,0,0,11.14,22.14l76.19-38.37a12.4,12.4,0,0,0-5.86-23.59,12.15,12.15,0,0,0-4.76,1.19Z" transform="translate(-1138.11 -238.48)" style="fill:#ef4444"/><path d="M2069,1698.44c-17.58,7.84-35.59,14.32-53.6,21.53-8.64,3.6-17.28,15.12-13.68,25.93.72,1.44,3.6,4.32,5,3.6,25.93-10.09,64.82-15.85,70.58-48.26,0-2.16-4.32-4.32-8-2.93Z" transform="translate(-1138.11 -238.48)" style="fill:#facc15"/><path d="M2086.13,1690.13c-5.15,5.35-5.87,18.31,2,19,5,.72,7.2-4.32,8.64-8.64,1.44-5-1.44-13-8.16-11.72A6.91,6.91,0,0,0,2086.13,1690.13Z" transform="translate(-1138.11 -238.48)" style="fill:#3b82f6"/><path d="M1395.63,2479.7a6.23,6.23,0,0,1,1.83-5.71,8.34,8.34,0,0,1,5.61-2.76,6.94,6.94,0,0,1,5.62,2,10.13,10.13,0,0,1,2.84,5.41q1.44,9.89,2.06,19.63t.67,19.72a7.9,7.9,0,0,1,0,6,370.06,370.06,0,0,1-2.38,37.68,6.51,6.51,0,0,1-3.47,5,7.36,7.36,0,0,1-5.92,1,7,7,0,0,1-4.91-3.38,10.77,10.77,0,0,1-1.29-6c.61-5.1,1.08-10.12,1.44-15.07s.55-9.95.63-15a174.11,174.11,0,0,0-28-1.5,214.63,214.63,0,0,0-28.18,2.71q-14.62,2.32-28.87,5.84t-28.58,7.22a9.77,9.77,0,0,1-6.11-.31,7.1,7.1,0,0,1-4-4.43,7.56,7.56,0,0,1,.21-6.1,6.56,6.56,0,0,1,4.54-4q15.9-4.22,31.52-8.11t31.63-6.32a223,223,0,0,1,28-2.39,194.74,194.74,0,0,1,27.83,1.41A296.09,296.09,0,0,0,1395.63,2479.7Z" transform="translate(-1138.11 -238.48)" style="fill:#7c7c79;stroke:#7c7c79;stroke-miterlimit:10;stroke-width:5px"/><path d="M1366.55,2652.19a25.7,25.7,0,0,1-9.31-9.75,31.71,31.71,0,0,1-3.6-12.32,42.13,42.13,0,0,1,1.08-13.24,55.06,55.06,0,0,1,4.72-12.69q2.5-4.65,5.57-9.64a55.68,55.68,0,0,1,6.89-9,34.42,34.42,0,0,1,8.66-6.66,23.44,23.44,0,0,1,10.87-2.7,60.33,60.33,0,0,1,12.42,1.15,111,111,0,0,1,12.12,3.13,28.84,28.84,0,0,1,5.13,2.08q2.43,1.26,4.84,2.63a6.73,6.73,0,0,1,3.4-4.52,8.29,8.29,0,0,1,5.52-1.19,7.09,7.09,0,0,1,5.08,3.07,9.76,9.76,0,0,1,1.65,5.79,154.47,154.47,0,0,1-1.83,18.26q-1.46,9-3.3,18t-3.5,18q-1.67,9-2.62,18.14a6.22,6.22,0,0,1-3.11,5.27,8.88,8.88,0,0,1-10.83-1.62,7.14,7.14,0,0,1-1.82-6,71.74,71.74,0,0,1-24.65,1.85A51.67,51.67,0,0,1,1366.55,2652.19Zm7.78-42.54a77.17,77.17,0,0,0-3.37,7.75,28.44,28.44,0,0,0-1.89,8.58,17.29,17.29,0,0,0,1.42,8,11.77,11.77,0,0,0,6.37,5.89,46.49,46.49,0,0,0,40,.55q2.24-9.54,4.08-18.53t3-18.28a68.34,68.34,0,0,0-6.22-4.86,26.3,26.3,0,0,0-7.25-3.4c-2.7-.8-5.58-1.54-8.63-2.2a60.1,60.1,0,0,0-9-1.24,11.26,11.26,0,0,0-2.15.18,7.94,7.94,0,0,0-2,.41,10.28,10.28,0,0,0-4,2.62,53,53,0,0,0-5.67,6.91Q1376.54,2605.75,1374.33,2609.65Z" transform="translate(-1138.11 -238.48)" style="fill:#7c7c79;stroke:#7c7c79;stroke-miterlimit:10;stroke-width:5px"/><path d="M1455.48,2615.6a7.06,7.06,0,0,1,4.34-4.6,9.23,9.23,0,0,1,5.89-.16,8.06,8.06,0,0,1,4.48,3.37q1.62,2.49.32,6c-.24.76-.51,1.55-.83,2.35s-.6,1.59-.83,2.35a97.55,97.55,0,0,1,14.46-1.26,62.92,62.92,0,0,1,14.37,1.43,41.43,41.43,0,0,1,12.81,5.11,30.18,30.18,0,0,1,9.79,9.81q1.89,3.3.72,6.06a8.11,8.11,0,0,1-3.78,4.15,9.29,9.29,0,0,1-5.81.91,7.72,7.72,0,0,1-5.34-3.63,13.74,13.74,0,0,0-3.9-3.92,18,18,0,0,0-5.31-2.37,38.79,38.79,0,0,0-6.11-1.17c-2.08-.22-4.09-.36-6-.4a92,92,0,0,0-21.49,2.73q-2.52,9.45-4.64,19-1.65,8-3.64,16.5a60.45,60.45,0,0,0-1.63,16.7,6.63,6.63,0,0,1-2.27,5.66,8,8,0,0,1-5.35,1.78,9.3,9.3,0,0,1-5.59-2.15,7.18,7.18,0,0,1-2.68-5.83,45.22,45.22,0,0,1,.68-9.59l1.68-9.49q1-4.5,1.89-9.12c.6-3.08,1.23-6.11,1.88-9.11q2.22-10.58,5.1-20.84A208.66,208.66,0,0,1,1455.48,2615.6Z" transform="translate(-1138.11 -238.48)" style="fill:#7c7c79;stroke:#7c7c79;stroke-miterlimit:10;stroke-width:5px"/><path d="M1542.24,2713.27a25.78,25.78,0,0,1-9.11-9.94,31.76,31.76,0,0,1-3.34-12.4,42.16,42.16,0,0,1,1.35-13.21,56,56,0,0,1,5-12.59q2.61-4.59,5.78-9.52a55.08,55.08,0,0,1,7.08-8.89,34,34,0,0,1,8.79-6.48,23.39,23.39,0,0,1,10.93-2.48,60.19,60.19,0,0,1,12.39,1.41,112.57,112.57,0,0,1,12.05,3.38,29.22,29.22,0,0,1,5.09,2.18c1.6.88,3.19,1.8,4.78,2.74a6.75,6.75,0,0,1,3.49-4.45,8.34,8.34,0,0,1,5.54-1.08,7.09,7.09,0,0,1,5,3.19,9.73,9.73,0,0,1,1.53,5.82,154,154,0,0,1-2.21,18.21q-1.65,9-3.68,18t-3.87,17.93q-1.85,9-3,18.08a6.21,6.21,0,0,1-3.21,5.21,8.88,8.88,0,0,1-10.8-1.85,7.15,7.15,0,0,1-1.69-6.05,71.52,71.52,0,0,1-24.69,1.34A51.52,51.52,0,0,1,1542.24,2713.27Zm8.66-42.37a81.07,81.07,0,0,0-3.53,7.68,28.45,28.45,0,0,0-2.07,8.54,17.21,17.21,0,0,0,1.26,8,11.74,11.74,0,0,0,6.25,6,46.44,46.44,0,0,0,40,1.39q2.43-9.49,4.47-18.44t3.42-18.21a68.54,68.54,0,0,0-6.12-5,26,26,0,0,0-7.18-3.55c-2.68-.86-5.54-1.66-8.58-2.38a59.09,59.09,0,0,0-9-1.43,11.43,11.43,0,0,0-2.14.14,7.64,7.64,0,0,0-2,.37,10.08,10.08,0,0,0-4.07,2.53,52.88,52.88,0,0,0-5.81,6.79Q1553.18,2667,1550.9,2670.9Z" transform="translate(-1138.11 -238.48)" style="fill:#7c7c79;stroke:#7c7c79;stroke-miterlimit:10;stroke-width:5px"/><path d="M1427.14,2226.58l-24.55,108c-.91,4-1.72,7.56-2.39,10.53-4.2,17.16-5.2,42.16,10.8,53.16,16-37,32-75,42.45-115.06q.9-3.91,1.77-7.67l9.21-40.51a19.18,19.18,0,0,0-37.2-9.37A2.87,2.87,0,0,0,1427.14,2226.58Z" transform="translate(-1138.11 -238.48)" style="fill:#22c55e"/><path d="M1329.75,2339.78l2.16-9.52c4.09-21,10.09-42,14.28-62.82l1.8-7.94,11-48.41a19.18,19.18,0,0,0-37.39-8.49l-2.17,9.53c-.68,3-1.49,6.55-2.39,10.59-6,30.58,2,62.58-18,92.58-5,7-8,15-7,23.61a19.45,19.45,0,0,0,2.5,6.91,19.18,19.18,0,0,0,35-5.17Z" transform="translate(-1138.11 -238.48)" style="fill:#ef4444"/><path d="M1374.89,2385.44c1.11-4.14,1.11-8.14,2.75-12.47.42-1.86.88-3.87,1.37-6l13.83-60.86a19.18,19.18,0,0,0-37.39-8.49l-15.2,66.85c-.84,3.72-1.54,6.81-2,9-3.21,8.85-1.21,17.85,5.79,24.85a16.83,16.83,0,0,0,15,2.29,18.39,18.39,0,0,0,9.85-5,25.83,25.83,0,0,0,5.87-9.25C1374.77,2386,1374.84,2385.66,1374.89,2385.44Z" transform="translate(-1138.11 -238.48)" style="fill:#facc15"/><path d="M1364.71,2435.06c1.29-7.76-.71-17.76-9.71-20.76-15-3-27,12-28,25,0,6,5,12,12,13,9,1,17-3,22.53-10.27A21.2,21.2,0,0,0,1364.71,2435.06Z" transform="translate(-1138.11 -238.48)" style="fill:#3b82f6"/></svg>